<svg width="69" height="65" viewBox="0 0 69 65" fill="none" xmlns="http://www.w3.org/2000/svg">
<path d="M23.53 1.82L28.16 4.5L28.11 21.06L30.4 22.38V19.95C30.42 16.24 31.09 13.81 32.44 12.66C32.6 12.52 32.77 12.41 32.95 12.31C32.94 12.31 32.93 12.32 32.92 12.33L35.66 10.74C36.15 10.46 36.7 10.32 37.31 10.32C38.35 10.32 39.57 10.73 40.98 11.54C43.5 12.99 45.42 15.06 46.75 17.73C48.08 20.4 48.75 23.53 48.77 27.11V32C48.75 35.67 48.08 38.1 46.75 39.28C46.59 39.42 46.42 39.55 46.24 39.65L43.5 41.24C43.56 41.21 43.61 41.17 43.67 41.13C43.15 41.48 42.55 41.66 41.87 41.66C40.83 41.66 39.61 41.25 38.19 40.44C35.67 38.99 33.75 36.92 32.42 34.24C31.36 32.1 30.72 29.68 30.49 26.97L28.09 28.36V31.07L25.34 32.66L20.75 30.01L20.77 24.26L11.29 18.79L11.09 15.35L20.78 3.42L23.52 1.83L23.53 1.82ZM23.53 0.970001C23.38 0.970001 23.23 1.01 23.1 1.09L20.36 2.68C20.27 2.73 20.19 2.8 20.13 2.88L10.44 14.81C10.31 14.97 10.24 15.18 10.25 15.4L10.45 18.84C10.47 19.13 10.63 19.38 10.87 19.53L19.92 24.75V30C19.9 30.3 20.07 30.59 20.33 30.74L24.92 33.39C25.05 33.47 25.2 33.5 25.35 33.5C25.5 33.5 25.65 33.46 25.78 33.38L28.52 31.79C28.78 31.64 28.94 31.36 28.94 31.06V28.84L29.79 28.35C30.11 30.64 30.73 32.74 31.66 34.61C33.06 37.43 35.11 39.64 37.77 41.17C39.33 42.07 40.67 42.51 41.87 42.51C42.59 42.51 43.26 42.35 43.85 42.02C43.88 42.01 43.9 41.99 43.93 41.98L46.67 40.39C46.9 40.26 47.12 40.1 47.32 39.92C48.85 38.56 49.6 35.97 49.61 32V27.11C49.61 23.41 48.89 20.13 47.51 17.35C46.11 14.54 44.06 12.33 41.4 10.8C39.85 9.9 38.51 9.47 37.3 9.47C36.54 9.47 35.84 9.64999 35.22 10.01L32.48 11.6C32.48 11.6 32.45 11.62 32.43 11.63C32.23 11.75 32.05 11.88 31.88 12.03C30.32 13.36 29.56 15.95 29.55 19.96V20.92L28.96 20.58L29.01 4.51C29.01 4.21 28.85 3.92 28.58 3.77L23.95 1.09C23.82 1.01 23.67 0.980003 23.52 0.980003L23.53 0.970001Z" fill="#262028"/>
<path d="M60.84 23.36L65.47 26.04L65.42 42.6L68.04 44.11V48.36L65.4 49.89V52.6L62.65 54.19L58.06 51.54L58.08 45.79L48.6 40.32L48.4 36.88L58.09 24.95L60.83 23.36H60.84ZM60.84 22.51C60.69 22.51 60.54 22.55 60.41 22.63L57.67 24.22C57.58 24.27 57.5 24.34 57.44 24.42L47.75 36.35C47.62 36.51 47.55 36.72 47.56 36.94L47.76 40.38C47.78 40.67 47.94 40.92 48.18 41.07L57.23 46.29V51.54C57.21 51.84 57.38 52.13 57.64 52.28L62.23 54.93C62.36 55.01 62.51 55.04 62.66 55.04C62.81 55.04 62.96 55 63.09 54.92L65.83 53.33C66.09 53.18 66.25 52.9 66.25 52.6V50.38L68.46 49.1C68.72 48.95 68.88 48.67 68.88 48.37V44.12C68.89 43.82 68.73 43.53 68.47 43.38L66.28 42.11L66.33 26.04C66.33 25.74 66.17 25.45 65.9 25.3L61.27 22.62C61.14 22.54 60.99 22.51 60.84 22.51Z" fill="#262028"/>
<path d="M54.68 48C54.71 48.13 54.24 48.19 54.2 48.23C54.1 48.31 54.39 48.42 54.48 48.43C54.59 48.45 54.83 48.46 54.92 48.53C55 48.6 55 48.82 54.95 48.96C54.89 49.15 54.74 49.23 54.54 49.21C54.42 49.21 53.18 48.86 53.07 48.74C53.02 48.69 53.11 48.5 53.09 48.43C53.04 48.15 54.61 47.71 54.68 48Z" fill="white"/>
<path d="M54.59 49.36C54.59 49.36 54.55 49.36 54.54 49.36C54.43 49.36 53.14 49.02 52.97 48.84C52.89 48.75 52.91 48.63 52.94 48.52C52.94 48.49 52.95 48.45 52.95 48.44C52.88 48.06 53.88 47.83 53.99 47.8C54.49 47.69 54.77 47.75 54.83 47.96C54.87 48.14 54.71 48.23 54.54 48.28H54.58C54.77 48.3 54.93 48.33 55.02 48.41C55.17 48.54 55.15 48.83 55.1 49C55.03 49.23 54.84 49.36 54.59 49.36ZM53.21 48.65C53.42 48.76 54.42 49.05 54.56 49.06C54.74 49.07 54.79 48.99 54.82 48.91C54.86 48.8 54.85 48.66 54.82 48.63C54.78 48.6 54.61 48.58 54.54 48.58C54.51 48.58 54.48 48.58 54.46 48.58C54.46 48.58 54.09 48.51 54.04 48.32C54.02 48.25 54.04 48.17 54.11 48.12C54.13 48.1 54.16 48.09 54.19 48.08C54.11 48.09 54.02 48.11 53.92 48.14C53.52 48.24 53.3 48.38 53.25 48.43C53.25 48.48 53.25 48.53 53.23 48.59C53.23 48.61 53.22 48.64 53.22 48.66L53.21 48.65Z" fill="#262028"/>
<path d="M53.25 48.11C53.03 48.05 51.91 47.76 51.48 47.13C51.06 46.51 51.13 45.65 50.89 45.15C50.76 44.86 50.49 44.67 50.2 44.77C49.76 44.91 49.81 45.41 49.81 45.8C49.81 46.31 50.22 47.85 51.17 48.31C51.74 48.59 52.84 48.81 53.16 48.75C53.37 48.72 53.48 48.59 53.49 48.49C53.51 48.32 53.4 48.15 53.24 48.11H53.25Z" fill="white"/>
<path d="M53.06 48.91C52.61 48.91 51.65 48.7 51.12 48.45C50.11 47.96 49.68 46.38 49.67 45.81V45.72C49.66 45.33 49.65 44.8 50.16 44.64C50.5 44.53 50.85 44.72 51.03 45.1C51.13 45.32 51.18 45.59 51.23 45.88C51.3 46.29 51.37 46.71 51.61 47.06C51.86 47.43 52.46 47.76 53.29 47.98L53.26 48.13L53.3 47.99C53.53 48.05 53.69 48.28 53.66 48.53C53.64 48.69 53.5 48.87 53.21 48.92C53.17 48.92 53.13 48.92 53.07 48.92L53.06 48.91ZM50.36 44.9C50.36 44.9 50.29 44.9 50.26 44.92C49.98 45.01 49.96 45.29 49.97 45.71V45.8C49.97 46.31 50.37 47.75 51.25 48.18C51.82 48.45 52.88 48.65 53.15 48.61C53.3 48.59 53.35 48.51 53.36 48.48C53.37 48.38 53.31 48.28 53.22 48.26L53.26 48.12L53.22 48.26C52.59 48.09 51.75 47.78 51.37 47.22C51.1 46.82 51.02 46.35 50.95 45.93C50.9 45.66 50.86 45.41 50.77 45.22C50.7 45.06 50.55 44.9 50.37 44.9H50.36Z" fill="#262028"/>
<path d="M48.14 59.87C48.14 59.93 48.13 60 48.14 60.07C48.18 60.53 48.26 61.04 48.22 61.51C48.22 61.59 48.18 61.68 48.12 61.73C48.06 61.79 47.97 61.81 47.89 61.81C47.72 61.81 47.55 61.72 47.46 61.58C47.31 61.37 47.32 61.01 47.3 60.76C47.29 60.62 47.29 60.48 47.29 60.34C47.29 60.15 47.24 59.93 47.29 59.74C47.38 59.38 47.74 59.32 48.01 59.52C48.17 59.63 48.16 59.74 48.15 59.87H48.14Z" fill="#262028"/>
<path d="M49.81 59.14C49.96 59.15 50.11 59.23 50.24 59.28C50.55 59.4 50.85 59.53 51.14 59.67C51.35 59.76 51.83 59.92 51.7 60.24C51.64 60.38 51.49 60.49 51.33 60.52C51.02 60.59 50.76 60.52 50.52 60.38C50.29 60.23 50.02 60.13 49.74 60.08C49.5 60.04 49.34 59.92 49.35 59.67C49.35 59.43 49.5 59.11 49.81 59.14Z" fill="#262028"/>
<path d="M50.73 50.89C50.69 50.68 49.15 50.67 48.98 51.08C48.83 50.72 48.56 50.45 48.17 50.49C47.68 50.54 47.36 50.12 47.28 50.62C47.16 51.4 47.13 52.74 47.14 53.42C47.14 54.33 47.16 55.24 47.17 56.15C47.18 57.18 47.19 58.21 47.2 59.23C47.2 59.51 47.23 59.83 47.45 60C47.62 60.13 47.98 60.1 48.14 59.92C48.27 59.77 48.62 55.51 49.04 52.94C49.15 55.34 49.39 59.5 49.43 59.57C49.6 59.88 50.22 59.77 50.34 59.46C50.48 59.09 50.8 51.28 50.74 50.9L50.73 50.89Z" fill="#FE4340"/>
<path d="M47.73 60.23C47.59 60.23 47.46 60.19 47.36 60.12C47.06 59.89 47.06 59.46 47.05 59.23L46.99 53.42C46.99 52.75 47.01 51.39 47.13 50.6C47.15 50.5 47.18 50.35 47.3 50.27C47.43 50.19 47.57 50.23 47.72 50.27C47.85 50.31 47.99 50.35 48.15 50.34C48.5 50.31 48.81 50.48 49.01 50.83C49.37 50.59 50.12 50.59 50.41 50.62C50.61 50.64 50.84 50.69 50.87 50.87C50.93 51.22 50.63 59.06 50.46 59.51C50.37 59.76 50.08 59.88 49.84 59.9C49.59 59.92 49.38 59.82 49.28 59.64C49.22 59.53 49.05 56.43 48.95 54.49C48.82 55.49 48.7 56.56 48.6 57.48C48.36 59.59 48.32 59.93 48.24 60.02C48.12 60.16 47.91 60.23 47.72 60.23H47.73ZM47.46 50.52C47.46 50.52 47.44 50.55 47.43 50.64C47.31 51.41 47.28 52.75 47.29 53.41L47.35 59.22C47.35 59.47 47.37 59.74 47.54 59.87C47.64 59.95 47.9 59.94 48.01 59.82C48.07 59.64 48.19 58.52 48.31 57.43C48.47 56 48.67 54.23 48.88 52.9C48.89 52.82 48.96 52.78 49.04 52.78C49.12 52.78 49.18 52.85 49.18 52.92C49.3 55.44 49.52 59.17 49.56 59.51C49.63 59.61 49.78 59.6 49.83 59.6C49.99 59.59 50.15 59.5 50.19 59.4C50.3 59.07 50.64 51.69 50.59 50.95C50.44 50.89 49.85 50.85 49.42 50.97C49.23 51.02 49.14 51.09 49.12 51.13C49.1 51.19 49.04 51.22 48.98 51.22C48.92 51.22 48.87 51.18 48.84 51.13C48.74 50.88 48.54 50.59 48.18 50.63C47.96 50.65 47.78 50.59 47.64 50.55C47.58 50.53 47.48 50.5 47.46 50.51V50.52ZM50.73 50.9L50.58 50.92L50.73 50.9Z" fill="#262028"/>
<path d="M47.18 50.62C47.13 50.98 47.2 51.29 47.56 51.42C47.83 51.52 49.59 51.89 50.65 51.07C50.81 50.95 50.8 50.75 50.8 50.58C50.81 50.18 50.71 46.22 50.6 45.32C50.58 45.15 50.55 44.97 50.43 44.85C50.27 44.7 50.03 44.72 49.81 44.75C49.39 44.81 49.11 44.8 48.72 44.95C48.41 45.06 47.83 45.35 47.61 45.6C47.37 45.86 47.24 50.14 47.18 50.62Z" fill="white"/>
<path d="M48.83 51.74C48.2 51.74 47.67 51.62 47.52 51.56C47.14 51.42 46.97 51.1 47.04 50.6C47.06 50.47 47.08 50.01 47.11 49.43C47.26 46.59 47.35 45.67 47.51 45.49C47.78 45.2 48.41 44.9 48.68 44.8C48.99 44.69 49.22 44.66 49.5 44.63C49.6 44.62 49.7 44.61 49.81 44.59C49.99 44.57 50.32 44.52 50.55 44.72C50.71 44.87 50.75 45.08 50.77 45.28C50.88 46.2 50.98 50.2 50.97 50.56V50.61C50.97 50.78 50.97 51.01 50.76 51.17C50.2 51.6 49.47 51.72 48.84 51.72L48.83 51.74ZM50.07 44.88C50 44.88 49.92 44.88 49.84 44.9C49.73 44.92 49.62 44.93 49.52 44.94C49.26 44.97 49.05 44.99 48.77 45.09C48.46 45.2 47.91 45.49 47.72 45.7C47.58 45.93 47.46 48.31 47.4 49.45C47.37 50.06 47.35 50.49 47.33 50.64C47.27 51.1 47.45 51.22 47.62 51.28C47.89 51.38 49.57 51.72 50.57 50.95C50.65 50.89 50.66 50.78 50.66 50.62V50.57C50.67 50.21 50.57 46.24 50.46 45.33C50.44 45.18 50.42 45.03 50.33 44.95C50.27 44.89 50.17 44.87 50.07 44.87V44.88Z" fill="#262028"/>
<path d="M48.43 45.05C48.43 45.8 49.84 45.76 49.79 45.05C49.72 44.07 49.66 43.96 49.19 43.82C49.06 43.78 48.93 43.76 48.79 43.76C48.3 43.76 48.5 44.01 48.52 44.18C48.59 44.69 48.41 44.77 48.42 45.04L48.43 45.05Z" fill="white"/>
<path d="M49.12 45.75C48.95 45.75 48.78 45.71 48.64 45.63C48.41 45.51 48.29 45.3 48.28 45.05C48.28 44.92 48.31 44.83 48.34 44.74C48.38 44.62 48.43 44.49 48.38 44.21C48.38 44.18 48.37 44.15 48.36 44.13C48.33 44.03 48.29 43.89 48.37 43.77C48.46 43.64 48.66 43.62 48.79 43.62C48.92 43.62 49.06 43.64 49.23 43.69C49.8 43.85 49.87 44.08 49.93 45.05C49.95 45.28 49.84 45.48 49.64 45.61C49.49 45.71 49.3 45.76 49.11 45.76L49.12 45.75ZM48.82 43.92H48.8C48.65 43.92 48.61 43.95 48.61 43.95C48.61 43.95 48.63 44.01 48.64 44.04C48.65 44.09 48.67 44.13 48.67 44.17C48.72 44.52 48.67 44.7 48.61 44.84C48.58 44.92 48.56 44.97 48.57 45.05C48.57 45.19 48.64 45.3 48.77 45.37C48.98 45.48 49.29 45.47 49.48 45.35C49.59 45.28 49.64 45.18 49.63 45.06C49.57 44.09 49.51 44.07 49.14 43.97C49.01 43.93 48.9 43.91 48.8 43.91L48.82 43.92Z" fill="#262028"/>
<path d="M48.55 43.62C48.35 43.62 48.31 43.86 48.45 44.05C48.49 44.1 48.56 44.15 48.62 44.19C48.99 44.48 49.06 44.15 48.95 44.05C48.68 43.82 48.8 43.63 48.55 43.62Z" fill="white"/>
<path d="M48.87 44.46C48.78 44.46 48.67 44.42 48.53 44.31L48.49 44.28C48.44 44.24 48.38 44.2 48.33 44.14C48.21 43.99 48.18 43.79 48.25 43.64C48.31 43.53 48.41 43.46 48.55 43.47C48.78 43.47 48.84 43.61 48.88 43.71C48.91 43.78 48.94 43.85 49.04 43.93C49.16 44.03 49.18 44.23 49.08 44.35C49.05 44.38 48.99 44.45 48.87 44.45V44.46ZM48.54 43.77H48.52C48.51 43.8 48.52 43.88 48.57 43.95C48.59 43.97 48.63 44.01 48.67 44.03L48.71 44.06C48.71 44.06 48.78 44.11 48.81 44.12C48.69 44 48.64 43.89 48.61 43.81C48.61 43.79 48.59 43.76 48.58 43.75C48.58 43.75 48.57 43.75 48.54 43.75V43.77Z" fill="#262028"/>
<path d="M50.45 42.9C50.65 43.76 50.37 44.89 49.81 45.02C49.24 45.15 48.62 44.56 48.42 43.7C48.22 42.84 48.52 42.03 49.08 41.9C49.65 41.77 50.25 42.03 50.45 42.9Z" fill="white"/>
<path d="M49.64 45.19C49.05 45.19 48.47 44.6 48.27 43.74C48.17 43.3 48.18 42.85 48.32 42.48C48.46 42.09 48.72 41.84 49.04 41.76C49.6 41.63 50.35 41.84 50.59 42.87C50.8 43.78 50.51 45.01 49.84 45.17C49.77 45.19 49.71 45.19 49.64 45.19ZM49.35 42.02C49.27 42.02 49.19 42.02 49.12 42.05C48.9 42.1 48.71 42.29 48.61 42.58C48.49 42.89 48.48 43.28 48.57 43.67C48.75 44.44 49.3 44.99 49.78 44.88C50.23 44.78 50.5 43.76 50.31 42.94C50.15 42.26 49.75 42.03 49.35 42.03V42.02Z" fill="#262028"/>
<path d="M48.05 50.24C48.05 50.24 48.49 50.41 48.57 50.41C48.87 50.41 49.15 50.63 49.18 50.89C49.19 50.97 49.14 51.06 49.09 51.11C49.03 51.17 48.93 51.19 48.86 51.16C48.79 51.14 48.73 51.1 48.67 51.06C48.55 51 48.4 50.97 48.26 50.97C48.2 50.97 48.14 50.97 48.09 50.96C47.9 50.93 47.79 50.76 47.74 50.58C47.71 50.48 48.04 50.23 48.05 50.24Z" fill="white"/>
<path d="M48.95 51.32C48.95 51.32 48.87 51.32 48.83 51.3C48.77 51.28 48.72 51.25 48.67 51.22C48.65 51.21 48.63 51.2 48.62 51.19C48.53 51.14 48.42 51.12 48.27 51.11H48.23C48.18 51.11 48.13 51.11 48.08 51.09C47.86 51.05 47.7 50.88 47.61 50.61C47.54 50.37 47.98 50.09 47.99 50.09C48.04 50.06 48.11 50.07 48.16 50.11C48.23 50.14 48.53 50.24 48.59 50.24C48.96 50.24 49.3 50.52 49.35 50.85C49.37 50.99 49.29 51.12 49.23 51.2C49.16 51.27 49.06 51.31 48.96 51.31L48.95 51.32ZM47.91 50.57C47.95 50.67 48.01 50.79 48.13 50.81C48.17 50.81 48.21 50.81 48.25 50.81H48.29C48.48 50.82 48.63 50.86 48.76 50.92C48.78 50.93 48.81 50.94 48.83 50.96C48.87 50.98 48.9 51 48.93 51.01C48.96 51.01 49 51.01 49.01 51C49.04 50.97 49.06 50.92 49.06 50.9C49.04 50.72 48.81 50.55 48.59 50.55C48.55 50.55 48.26 50.49 48.08 50.41C48.02 50.46 47.95 50.53 47.92 50.57H47.91Z" fill="#262028"/>
<path d="M48.15 45.63C47.75 45.17 47.3 45.48 47 45.72C46.62 46.02 46.31 46.53 46.15 46.99C45.82 47.96 46.11 49.07 46.72 49.89C46.97 50.22 47.29 50.49 47.67 50.65C47.82 50.71 47.98 50.76 48.08 50.62C48.14 50.54 48.13 50.43 48.08 50.34C48.04 50.25 47.97 50.18 47.9 50.11C47.25 49.38 46.77 47.99 47.35 47.12C47.55 46.82 47.79 46.58 48.04 46.33C48.25 46.12 48.35 45.87 48.15 45.65V45.63Z" fill="white"/>
<path d="M47.9 50.85C47.78 50.85 47.67 50.8 47.61 50.78C47.23 50.63 46.88 50.35 46.6 49.98C45.91 49.06 45.68 47.9 46.01 46.94C46.15 46.53 46.46 45.96 46.91 45.6C47.16 45.4 47.75 44.94 48.27 45.53C48.49 45.79 48.45 46.11 48.15 46.41C47.91 46.65 47.67 46.9 47.48 47.18C46.93 48.01 47.44 49.34 48.01 49.99L48.03 50.02C48.09 50.09 48.16 50.16 48.21 50.26C48.28 50.41 48.28 50.57 48.19 50.69C48.11 50.81 48 50.85 47.89 50.85H47.9ZM47.69 45.54C47.52 45.54 47.32 45.66 47.09 45.84C46.77 46.1 46.45 46.57 46.29 47.04C45.99 47.9 46.2 48.96 46.84 49.8C47.09 50.13 47.39 50.37 47.72 50.51C47.91 50.59 47.94 50.55 47.95 50.53C47.97 50.5 47.97 50.45 47.95 50.4C47.92 50.34 47.87 50.29 47.82 50.23L47.79 50.2C47.05 49.38 46.63 47.93 47.23 47.03C47.44 46.72 47.69 46.46 47.94 46.21C48.22 45.93 48.09 45.78 48.05 45.73C47.94 45.6 47.82 45.54 47.7 45.54H47.69Z" fill="#262028"/>
<path d="M49.29 42.92C49.29 42.92 49.24 43.01 49.23 43.06C49.2 43.21 49.19 43.37 49.19 43.53C49.19 43.6 49.17 43.8 49.05 43.77C48.99 43.76 48.96 43.67 48.93 43.64C48.87 43.58 48.78 43.55 48.71 43.59C48.61 43.64 48.62 43.77 48.64 43.86C48.66 43.93 48.68 43.99 48.7 44.06C48.72 44.13 48.72 44.2 48.7 44.27C48.66 44.36 48.53 44.44 48.45 44.37C48.24 44.2 48.08 43.97 48 43.71C47.87 43.34 47.81 42.86 48.05 42.52C48.11 42.43 48.19 42.35 48.28 42.28C48.3 42.26 48.38 42.23 48.39 42.2C48.39 42.2 48.58 41.77 49.15 41.73C49.9 41.68 50.33 42.21 50.42 42.36C50.53 42.53 50.66 42.9 50.44 43.04C50.36 43.09 50.27 43.11 50.17 43.12C50.07 43.13 49.97 43.14 49.86 43.13C49.76 43.13 49.66 43.09 49.57 43.03C49.5 42.98 49.4 42.83 49.3 42.92H49.29Z" fill="#262028"/>
<path d="M48.5 44.53C48.44 44.53 48.39 44.51 48.34 44.48C48.11 44.31 47.94 44.05 47.84 43.75C47.75 43.5 47.59 42.88 47.91 42.43C47.98 42.33 48.07 42.24 48.17 42.16C48.18 42.16 48.2 42.14 48.23 42.12L48.26 42.1C48.32 41.98 48.57 41.61 49.13 41.57C50.07 41.51 50.52 42.24 50.54 42.27C50.67 42.48 50.84 42.94 50.52 43.15C50.42 43.22 50.3 43.24 50.19 43.25C50.07 43.27 49.96 43.27 49.85 43.26C49.71 43.25 49.59 43.2 49.49 43.13C49.47 43.11 49.45 43.09 49.43 43.07C49.43 43.07 49.41 43.05 49.4 43.04V43.07C49.37 43.2 49.36 43.34 49.36 43.51C49.36 43.58 49.35 43.76 49.23 43.85C49.17 43.89 49.1 43.91 49.03 43.89C48.94 43.87 48.89 43.79 48.85 43.74C48.85 43.73 48.84 43.72 48.83 43.71C48.81 43.69 48.79 43.69 48.79 43.69C48.79 43.69 48.78 43.73 48.79 43.8C48.79 43.83 48.81 43.86 48.82 43.89C48.83 43.93 48.84 43.96 48.85 44C48.88 44.11 48.87 44.21 48.84 44.3C48.8 44.4 48.7 44.48 48.6 44.51C48.57 44.51 48.55 44.52 48.52 44.52L48.5 44.53ZM49.22 41.87C49.22 41.87 49.17 41.87 49.14 41.87C48.67 41.9 48.51 42.24 48.5 42.25C48.47 42.31 48.42 42.34 48.36 42.37H48.34C48.27 42.44 48.2 42.51 48.15 42.59C47.91 42.93 48.05 43.44 48.12 43.65C48.2 43.89 48.34 44.09 48.51 44.23C48.52 44.23 48.54 44.21 48.55 44.2C48.56 44.17 48.56 44.13 48.55 44.08C48.55 44.05 48.53 44.02 48.52 43.99C48.51 43.95 48.5 43.92 48.49 43.88C48.44 43.68 48.49 43.52 48.63 43.45C48.76 43.38 48.92 43.41 49.03 43.53H49.04C49.04 43.37 49.04 43.2 49.08 43.04C49.09 42.97 49.12 42.89 49.19 42.82H49.2C49.38 42.65 49.56 42.82 49.62 42.88C49.63 42.89 49.65 42.91 49.66 42.91C49.71 42.95 49.78 42.97 49.87 42.98C49.95 42.98 50.04 42.98 50.14 42.97C50.22 42.97 50.29 42.95 50.34 42.92C50.44 42.85 50.37 42.59 50.27 42.44C50.27 42.44 49.91 41.88 49.22 41.88V41.87ZM49.29 42.91L49.38 43.03L49.29 42.91Z" fill="#262028"/>
<path d="M20.8 36.67V38.99C20.8 37.62 19.89 36.26 18.08 35.23C14.47 33.18 8.66998 33.21 5.10998 35.31C3.33998 36.35 2.46 37.71 2.47 39.06V36.74C2.45 35.39 3.33 34.04 5.1 32.99C8.66 30.89 14.46 30.86 18.07 32.91C19.88 33.94 20.8 35.31 20.8 36.67Z" fill="white"/>
<path d="M2.47 39.21C2.39 39.21 2.32001 39.14 2.32001 39.06V36.74C2.30001 35.28 3.26999 33.9 5.01999 32.86C8.60999 30.74 14.5 30.71 18.14 32.78C19.94 33.81 20.94 35.19 20.95 36.67V38.99H20.96C20.96 39.08 20.89 39.15 20.81 39.15C20.73 39.15 20.66 39.08 20.66 39C20.66 37.62 19.71 36.33 18 35.36C14.44 33.33 8.68999 33.37 5.17999 35.44C3.51999 36.42 2.60998 37.7 2.60998 39.06C2.60998 39.14 2.53999 39.21 2.45999 39.21H2.47ZM11.67 31.54C9.32001 31.54 6.95999 32.07 5.17999 33.12C3.51999 34.1 2.60998 35.38 2.60998 36.74V37.68C3.01998 36.74 3.85001 35.89 5.04001 35.18C8.63001 33.06 14.52 33.03 18.16 35.1C19.39 35.8 20.24 36.66 20.66 37.61V36.67C20.66 35.3 19.71 34.01 18 33.03C16.25 32.03 13.96 31.53 11.67 31.53V31.54Z" fill="#262028"/>
<path d="M20.8 36.67V38.99C20.8 37.62 19.89 36.26 18.08 35.23C14.47 33.18 8.66998 33.21 5.10998 35.31C3.33998 36.35 2.46 37.71 2.47 39.06V36.74C2.45 35.39 3.33 34.04 5.1 32.99C8.66 30.89 14.46 30.86 18.07 32.91C19.88 33.94 20.8 35.31 20.8 36.67Z" fill="#262028"/>
<path d="M2.47 39.21C2.39 39.21 2.32001 39.14 2.32001 39.06V36.74C2.30001 35.28 3.26999 33.9 5.01999 32.86C8.60999 30.74 14.5 30.71 18.14 32.78C19.94 33.81 20.94 35.19 20.95 36.67V38.99H20.96C20.96 39.08 20.89 39.15 20.81 39.15C20.73 39.15 20.66 39.08 20.66 39C20.66 37.62 19.71 36.33 18 35.36C14.44 33.33 8.68999 33.37 5.17999 35.44C3.51999 36.42 2.60998 37.7 2.60998 39.06C2.60998 39.14 2.53999 39.21 2.45999 39.21H2.47ZM11.67 31.54C9.32001 31.54 6.95999 32.07 5.17999 33.12C3.51999 34.1 2.60998 35.38 2.60998 36.74V37.68C3.01998 36.74 3.85001 35.89 5.04001 35.18C8.63001 33.06 14.52 33.03 18.16 35.1C19.39 35.8 20.24 36.66 20.66 37.61V36.67C20.66 35.3 19.71 34.01 18 33.03C16.25 32.03 13.96 31.53 11.67 31.53V31.54Z" fill="#262028"/>
<path d="M22.36 36.66V39.15C22.37 40.73 21.34 42.32 19.28 43.54C15.12 45.99 8.32001 46.04 4.10001 43.64C1.98001 42.43 0.909994 40.83 0.899994 39.23V36.74C0.899994 38.34 1.97 39.94 4.09 41.15C8.31 43.55 15.11 43.51 19.27 41.05C21.34 39.83 22.37 38.25 22.36 36.66Z" fill="white"/>
<path d="M11.59 45.55C8.85 45.55 6.11999 44.96 4.01999 43.76C1.91999 42.56 0.75 40.95 0.75 39.22V36.73C0.75 36.65 0.819994 36.58 0.899994 36.58C0.979994 36.58 1.04999 36.65 1.04999 36.73C1.04999 38.35 2.16001 39.87 4.17001 41.01C8.34001 43.38 15.09 43.34 19.2 40.91C21.15 39.76 22.22 38.25 22.22 36.66C22.22 36.57 22.29 36.51 22.37 36.51C22.45 36.51 22.52 36.58 22.52 36.66V39.15C22.53 40.85 21.41 42.46 19.36 43.66C17.23 44.92 14.41 45.55 11.6 45.55H11.59ZM1.04999 38.23V39.22C1.04999 40.84 2.17001 42.36 4.17001 43.5C8.34001 45.87 15.09 45.83 19.2 43.4C21.15 42.25 22.22 40.74 22.22 39.14V38.15C21.76 39.28 20.78 40.32 19.35 41.17C15.15 43.65 8.26999 43.69 4.01999 41.27C2.53999 40.43 1.51999 39.38 1.04999 38.23Z" fill="#262028"/>
<path d="M22.36 36.66V39.15C22.37 40.73 21.34 42.32 19.28 43.54C15.12 45.99 8.32001 46.04 4.10001 43.64C1.98001 42.43 0.909994 40.83 0.899994 39.23V36.74C0.899994 38.34 1.97 39.94 4.09 41.15C8.31 43.55 15.11 43.51 19.27 41.05C21.34 39.83 22.37 38.25 22.36 36.66Z" fill="#E2E1F2"/>
<path d="M11.59 45.55C8.85 45.55 6.11999 44.96 4.01999 43.76C1.91999 42.56 0.75 40.95 0.75 39.22V36.73C0.75 36.65 0.819994 36.58 0.899994 36.58C0.979994 36.58 1.04999 36.65 1.04999 36.73C1.04999 38.35 2.16001 39.87 4.17001 41.01C8.34001 43.38 15.09 43.34 19.2 40.91C21.15 39.76 22.22 38.25 22.22 36.66C22.22 36.57 22.29 36.51 22.37 36.51C22.45 36.51 22.52 36.58 22.52 36.66V39.15C22.53 40.85 21.41 42.46 19.36 43.66C17.23 44.92 14.41 45.55 11.6 45.55H11.59ZM1.04999 38.23V39.22C1.04999 40.84 2.17001 42.36 4.17001 43.5C8.34001 45.87 15.09 45.83 19.2 43.4C21.15 42.25 22.22 40.74 22.22 39.14V38.15C21.76 39.28 20.78 40.32 19.35 41.17C15.15 43.65 8.26999 43.69 4.01999 41.27C2.53999 40.43 1.51999 39.38 1.04999 38.23Z" fill="#262028"/>
<path d="M19.78 41.37C19.62 41.28 19.4 41.29 19.16 41.43C18.68 41.71 18.3 42.38 18.3 42.93C18.3 43.2 18.4 43.4 18.56 43.49L25.25 47.34C25.09 47.25 25 47.06 24.99 46.78C24.99 46.23 25.37 45.55 25.85 45.28C26.09 45.14 26.31 45.13 26.47 45.22L19.78 41.37Z" fill="#262028"/>
<path d="M25.24 47.5C25.24 47.5 25.19 47.5 25.17 47.48L18.49 43.63C18.28 43.51 18.16 43.27 18.16 42.95C18.16 42.34 18.57 41.62 19.1 41.32C19.38 41.16 19.65 41.13 19.87 41.26L26.56 45.11C26.63 45.15 26.66 45.24 26.61 45.31C26.57 45.38 26.48 45.41 26.41 45.36C26.29 45.29 26.13 45.31 25.94 45.42C25.51 45.67 25.15 46.3 25.15 46.79C25.15 47 25.22 47.15 25.33 47.22C25.4 47.26 25.43 47.35 25.38 47.42C25.35 47.47 25.3 47.49 25.25 47.49L25.24 47.5ZM19.55 41.46C19.46 41.46 19.35 41.49 19.23 41.56C18.8 41.81 18.44 42.44 18.44 42.93C18.44 43.14 18.51 43.29 18.62 43.36L24.84 46.94C24.84 46.94 24.83 46.84 24.83 46.78C24.83 46.17 25.24 45.45 25.77 45.15C25.82 45.12 25.87 45.1 25.92 45.08L19.7 41.5C19.7 41.5 19.6 41.46 19.55 41.46Z" fill="#262028"/>
<path d="M19.17 32.26C23.39 34.66 23.44 38.6 19.27 41.05C15.11 43.5 8.31 43.55 4.09 41.15C-0.130002 38.75 -0.180008 34.81 3.98999 32.36C8.14999 29.91 14.95 29.86 19.17 32.27V32.26ZM5.19 40.5C8.8 42.55 14.6 42.51 18.16 40.42C21.72 38.32 21.68 34.96 18.07 32.91C14.46 30.86 8.66001 30.89 5.10001 32.99C1.54001 35.09 1.58 38.45 5.19 40.5Z" fill="white"/>
<path d="M11.58 43.06C8.83999 43.06 6.11001 42.47 4.01002 41.27C1.91002 40.08 0.749996 38.47 0.739996 36.75C0.729996 35.04 1.85001 33.43 3.91001 32.22C8.11001 29.75 14.98 29.7 19.24 32.12C21.34 33.31 22.5 34.92 22.51 36.64C22.52 38.35 21.4 39.96 19.35 41.17C17.22 42.43 14.4 43.06 11.59 43.06H11.58ZM11.67 30.63C8.91002 30.63 6.15 31.25 4.06 32.48C2.1 33.64 1.03001 35.15 1.04001 36.75C1.05001 38.36 2.16001 39.88 4.16001 41.01C8.33001 43.38 15.08 43.34 19.19 40.91C21.15 39.76 22.22 38.24 22.21 36.64C22.2 35.03 21.09 33.51 19.09 32.38C17.03 31.21 14.35 30.63 11.67 30.63ZM11.59 42.15C9.25 42.15 6.91 41.64 5.12 40.62C3.32 39.6 2.32 38.22 2.31 36.74C2.3 35.27 3.26 33.89 5.03 32.85C8.62 30.73 14.51 30.7 18.15 32.77C19.95 33.79 20.94 35.17 20.96 36.65C20.97 38.12 20.01 39.5 18.25 40.54C16.43 41.61 14.02 42.15 11.61 42.15H11.59ZM5.26002 40.36C8.82001 42.39 14.57 42.35 18.08 40.28C19.75 39.3 20.66 38.01 20.65 36.65C20.64 35.28 19.7 34 17.99 33.03C14.43 31 8.68002 31.04 5.17002 33.11C3.50002 34.09 2.59001 35.38 2.60001 36.74C2.61001 38.11 3.55001 39.4 5.26002 40.36Z" fill="#262028"/>
<path d="M25.84 45.29C25.36 45.57 24.98 46.24 24.98 46.79C24.98 47.34 25.37 47.56 25.85 47.28C26.33 47 26.72 46.33 26.71 45.78C26.71 45.23 26.32 45.01 25.84 45.29Z" fill="white"/>
<path d="M25.46 47.56C25.35 47.56 25.25 47.53 25.16 47.48C24.95 47.36 24.83 47.11 24.83 46.79C24.83 46.18 25.24 45.46 25.77 45.16C26.05 45 26.32 44.97 26.54 45.1C26.75 45.22 26.87 45.46 26.87 45.79C26.87 46.4 26.46 47.12 25.93 47.42C25.77 47.51 25.61 47.56 25.46 47.56ZM25.91 45.42C25.48 45.67 25.12 46.3 25.12 46.79C25.12 47 25.19 47.15 25.3 47.22C25.42 47.29 25.58 47.26 25.77 47.16C26.2 46.91 26.56 46.28 26.56 45.78C26.56 45.57 26.49 45.42 26.38 45.35C26.26 45.28 26.1 45.31 25.91 45.41V45.42Z" fill="#262028"/>
<path d="M24.69 43.34C24.43 43.19 24.07 43.21 23.67 43.45C22.88 43.91 22.25 45.02 22.26 45.93C22.26 46.38 22.43 46.7 22.68 46.84L35.46 54.64C35.15 54.46 34.96 54.08 34.95 53.54C34.95 52.45 35.7 51.12 36.64 50.57C37.12 50.29 37.55 50.26 37.86 50.44L24.68 43.34H24.69Z" fill="#FE443E"/>
<path d="M35.47 54.79C35.47 54.79 35.42 54.79 35.4 54.77C35.38 54.77 35.37 54.75 35.35 54.74L22.61 46.96C22.3 46.78 22.12 46.41 22.12 45.92C22.12 44.97 22.78 43.8 23.6 43.31C24.03 43.06 24.44 43.02 24.76 43.2L37.9 50.28L37.94 50.3C38.01 50.34 38.04 50.43 38 50.5C37.96 50.57 37.87 50.6 37.8 50.56L37.76 50.54C37.48 50.4 37.12 50.45 36.72 50.68C35.82 51.21 35.09 52.48 35.1 53.52C35.1 53.97 35.25 54.3 35.5 54.47L35.54 54.49C35.61 54.53 35.63 54.62 35.59 54.69C35.56 54.74 35.51 54.76 35.46 54.76L35.47 54.79ZM24.32 43.4C24.15 43.4 23.95 43.46 23.75 43.58C23.01 44.02 22.41 45.07 22.41 45.93C22.41 46.31 22.54 46.59 22.76 46.72L34.89 54.13C34.84 53.96 34.81 53.77 34.81 53.56C34.8 52.43 35.59 51.03 36.57 50.46C36.76 50.35 36.95 50.27 37.13 50.23L24.62 43.49C24.53 43.44 24.43 43.41 24.32 43.41V43.4Z" fill="#262028"/>
<path d="M36.65 50.57C35.71 51.12 34.95 52.45 34.96 53.54C34.96 54.63 35.74 55.06 36.69 54.51C37.63 53.96 38.39 52.63 38.38 51.54C38.38 50.45 37.6 50.02 36.65 50.57Z" fill="#262028"/>
<path d="M35.91 54.9C35.72 54.9 35.55 54.86 35.39 54.77C35.02 54.56 34.81 54.12 34.8 53.54C34.79 52.41 35.58 51.01 36.56 50.44C37.07 50.14 37.55 50.1 37.93 50.31C38.3 50.52 38.51 50.96 38.52 51.54C38.53 52.67 37.74 54.07 36.75 54.64C36.45 54.81 36.16 54.9 35.9 54.9H35.91ZM37.42 50.48C37.21 50.48 36.97 50.55 36.72 50.7C35.82 51.23 35.09 52.5 35.1 53.54C35.1 54.01 35.26 54.35 35.53 54.51C35.81 54.67 36.19 54.62 36.6 54.38C37.5 53.85 38.23 52.58 38.22 51.54C38.22 51.07 38.06 50.73 37.79 50.57C37.68 50.51 37.56 50.48 37.42 50.48Z" fill="#262028"/>
<path d="M15.68 17.05L18.42 15.46L23.53 18.41L20.79 20L15.68 17.05Z" fill="white"/>
<path d="M20.79 20.15C20.79 20.15 20.74 20.15 20.72 20.13L15.61 17.18C15.61 17.18 15.54 17.1 15.54 17.05C15.54 17 15.57 16.95 15.61 16.92L18.35 15.33C18.35 15.33 18.45 15.3 18.5 15.33L23.61 18.28C23.61 18.28 23.68 18.36 23.68 18.41C23.68 18.46 23.65 18.51 23.61 18.54L20.87 20.13C20.87 20.13 20.82 20.15 20.8 20.15H20.79ZM15.98 17.05L20.79 19.83L23.23 18.41L18.42 15.63L15.98 17.05Z" fill="#262028"/>
<path d="M25.37 26.9L28.11 25.31L28.09 31.06L25.35 32.65L25.37 26.9Z" fill="white"/>
<path d="M25.35 32.8C25.35 32.8 25.3 32.8 25.28 32.78C25.23 32.75 25.21 32.7 25.21 32.65L25.23 26.9C25.23 26.85 25.26 26.8 25.3 26.77L28.04 25.18C28.04 25.18 28.14 25.15 28.19 25.18C28.24 25.21 28.26 25.26 28.26 25.31L28.24 31.06C28.24 31.11 28.21 31.16 28.17 31.19L25.43 32.78C25.43 32.78 25.38 32.8 25.36 32.8H25.35ZM25.52 26.99L25.5 32.39L27.94 30.97L27.96 25.57L25.52 26.99Z" fill="#262028"/>
<path d="M28 24.17L30.74 22.57L30.73 26.82L27.99 28.41L28 24.17Z" fill="white"/>
<path d="M27.99 28.56C27.99 28.56 27.94 28.56 27.92 28.54C27.87 28.51 27.85 28.46 27.85 28.41V24.16C27.86 24.11 27.89 24.06 27.94 24.03L30.68 22.44C30.68 22.44 30.78 22.41 30.83 22.44C30.88 22.47 30.9 22.52 30.9 22.57V26.82C30.89 26.87 30.86 26.92 30.81 26.95L28.07 28.54C28.07 28.54 28.02 28.56 28 28.56H27.99ZM28.15 24.25V28.15L30.58 26.73V22.83L28.15 24.25Z" fill="#262028"/>
<path d="M25.38 22.65L28.12 21.06L30.74 22.57L28 24.17L25.38 22.65Z" fill="white"/>
<path d="M28 24.31C28 24.31 27.95 24.31 27.93 24.29L25.31 22.78C25.31 22.78 25.24 22.7 25.24 22.65C25.24 22.6 25.27 22.55 25.31 22.52L28.05 20.93C28.05 20.93 28.15 20.9 28.2 20.93L30.82 22.44C30.82 22.44 30.89 22.52 30.89 22.57C30.89 22.62 30.86 22.67 30.82 22.7L28.08 24.29C28.08 24.29 28.03 24.31 28.01 24.31H28ZM25.68 22.65L28 23.99L30.44 22.57L28.12 21.23L25.68 22.65Z" fill="#262028"/>
<path d="M20.52 11.06L23.26 9.46001L18.42 15.46L15.68 17.05L20.52 11.06Z" fill="white"/>
<path d="M15.68 17.2C15.68 17.2 15.6 17.18 15.57 17.15C15.52 17.1 15.52 17.02 15.57 16.96L20.4 10.96C20.4 10.96 20.43 10.93 20.44 10.92L23.18 9.33C23.24 9.29 23.32 9.30999 23.37 9.35999C23.42 9.40999 23.42 9.49 23.37 9.55L18.54 15.55C18.54 15.55 18.51 15.58 18.5 15.59L15.76 17.18C15.76 17.18 15.71 17.2 15.69 17.2H15.68ZM20.61 11.17L16.3 16.52L18.32 15.35L22.63 9.99999L20.61 11.17Z" fill="#262028"/>
<path d="M20.82 10.63L23.56 9.03999L23.26 9.46001L20.52 11.06L20.82 10.63Z" fill="white"/>
<path d="M20.52 11.2C20.52 11.2 20.44 11.18 20.41 11.15C20.36 11.1 20.36 11.02 20.4 10.96L20.7 10.53C20.7 10.53 20.73 10.5 20.75 10.49L23.49 8.89999C23.55 8.85999 23.63 8.87999 23.67 8.92999C23.72 8.97999 23.72 9.05999 23.68 9.11999L23.38 9.55C23.38 9.55 23.35 9.57999 23.33 9.58999L20.59 11.18C20.59 11.18 20.54 11.2 20.52 11.2Z" fill="#262028"/>
<path d="M25.43 6.09L28.17 4.5L28.12 21.06L25.38 22.65L25.43 6.09Z" fill="white"/>
<path d="M25.38 22.8C25.38 22.8 25.33 22.8 25.31 22.78C25.26 22.75 25.24 22.7 25.24 22.65L25.29 6.08999C25.29 6.03999 25.32 5.99 25.36 5.96L28.1 4.37C28.1 4.37 28.2 4.34 28.25 4.37C28.3 4.4 28.32 4.45 28.32 4.5L28.27 21.06C28.27 21.11 28.24 21.16 28.2 21.19L25.46 22.78C25.46 22.78 25.41 22.8 25.39 22.8H25.38ZM25.58 6.17L25.53 22.39L27.97 20.97L28.02 4.75L25.58 6.17Z" fill="#262028"/>
<path d="M20.79 3.41L23.53 1.82L28.17 4.5L25.43 6.09L20.79 3.41Z" fill="white"/>
<path d="M25.43 6.24C25.43 6.24 25.38 6.24 25.36 6.22L20.73 3.54C20.73 3.54 20.66 3.46 20.66 3.41C20.66 3.36 20.69 3.31 20.73 3.28L23.47 1.69C23.47 1.69 23.57 1.66 23.62 1.69L28.25 4.37C28.25 4.37 28.32 4.45 28.32 4.5C28.32 4.55 28.29 4.59999 28.25 4.62999L25.51 6.22C25.51 6.22 25.46 6.24 25.44 6.24H25.43ZM21.09 3.42L25.43 5.92L27.87 4.5L23.53 2L21.09 3.42Z" fill="#262028"/>
<path d="M25.38 22.65L28 24.16V28.41L25.37 26.9L25.35 32.65L20.76 30L20.78 24.25L11.3 18.78L11.1 15.34L20.79 3.41L25.42 6.09L25.37 22.65H25.38ZM20.79 20L20.82 10.62L20.52 11.05L15.69 17.05L20.8 20H20.79Z" fill="#FE4340"/>
<path d="M25.35 32.8C25.35 32.8 25.3 32.8 25.28 32.78L20.69 30.13C20.69 30.13 20.62 30.05 20.62 30L20.64 24.34L11.24 18.91C11.24 18.91 11.17 18.84 11.17 18.79L10.97 15.35C10.97 15.35 10.97 15.28 11 15.25L20.69 3.32C20.74 3.26 20.82 3.25 20.88 3.28L25.51 5.96C25.51 5.96 25.58 6.04 25.58 6.09L25.53 22.57L28.07 24.04C28.07 24.04 28.14 24.12 28.14 24.17V28.42C28.13 28.47 28.1 28.52 28.05 28.55C28 28.58 27.95 28.58 27.9 28.55L25.5 27.17L25.48 32.66C25.48 32.71 25.45 32.76 25.41 32.79C25.39 32.8 25.36 32.81 25.34 32.81L25.35 32.8ZM20.91 29.92L25.2 32.4L25.22 26.91C25.22 26.86 25.25 26.81 25.29 26.78C25.34 26.75 25.39 26.75 25.44 26.78L27.84 28.16V24.25L25.31 22.78C25.31 22.78 25.24 22.7 25.24 22.65L25.29 6.17L20.84 3.6L11.27 15.39L11.46 18.69L20.87 24.12C20.87 24.12 20.94 24.2 20.94 24.25L20.92 29.91L20.91 29.92ZM20.79 20.16C20.79 20.16 20.74 20.16 20.72 20.14L15.61 17.19C15.61 17.19 15.55 17.13 15.54 17.09C15.54 17.05 15.54 17 15.57 16.97L20.4 10.97L20.7 10.55C20.74 10.5 20.8 10.47 20.87 10.49C20.93 10.51 20.97 10.57 20.97 10.63L20.94 20.01C20.94 20.06 20.91 20.11 20.87 20.14C20.85 20.15 20.82 20.16 20.8 20.16H20.79ZM15.9 17.02L20.64 19.76L20.66 11.11L20.63 11.16L15.9 17.03V17.02Z" fill="#262028"/>
<path d="M46.75 17.72C45.42 15.05 43.5 12.98 40.98 11.53C38.74 10.24 36.97 9.97 35.66 10.73L32.92 12.32C34.23 11.56 36 11.82 38.24 13.12C40.76 14.57 42.68 16.64 44.01 19.31C45.34 21.98 46.01 25.11 46.03 28.69V33.58C46.01 37.25 45.34 39.68 44.01 40.86C43.85 41 43.68 41.13 43.5 41.23L46.24 39.64C46.42 39.54 46.59 39.41 46.75 39.27C48.08 38.09 48.75 35.66 48.76 31.99V27.1C48.76 23.52 48.08 20.39 46.75 17.72Z" fill="white"/>
<path d="M43.5 41.38C43.45 41.38 43.4 41.35 43.37 41.31C43.33 41.24 43.35 41.15 43.42 41.11C43.59 41.01 43.75 40.89 43.91 40.76C45.2 39.61 45.86 37.2 45.87 33.59V28.7C45.87 25.16 45.19 22.02 43.88 19.39C42.57 16.76 40.65 14.69 38.17 13.26C35.99 12 34.25 11.74 33 12.46C32.93 12.5 32.84 12.48 32.8 12.41C32.76 12.34 32.78 12.25 32.85 12.21L35.59 10.62C36.94 9.83 38.78 10.1 41.06 11.42C43.59 12.88 45.55 14.99 46.89 17.67C48.22 20.35 48.91 23.53 48.93 27.12V32.01C48.91 35.71 48.21 38.2 46.86 39.4C46.69 39.55 46.51 39.68 46.32 39.79L43.58 41.38C43.58 41.38 43.53 41.4 43.51 41.4L43.5 41.38ZM34.56 11.75C35.63 11.75 36.89 12.16 38.31 12.99C40.84 14.45 42.81 16.56 44.14 19.24C45.47 21.92 46.16 25.1 46.18 28.69V33.58C46.16 36.77 45.64 39.06 44.63 40.4L46.16 39.51C46.33 39.41 46.49 39.29 46.65 39.16C47.94 38.01 48.6 35.6 48.61 31.99V27.1C48.61 23.56 47.93 20.43 46.62 17.79C45.31 15.16 43.39 13.09 40.91 11.66C38.73 10.4 36.99 10.14 35.74 10.86L34.17 11.77C34.3 11.76 34.43 11.75 34.57 11.75H34.56Z" fill="#262028"/>
<path d="M40.94 34.58C39.81 33.93 38.99 32.93 38.48 31.58C37.97 30.23 37.72 28.47 37.72 26.31L37.74 19.85C37.78 17.84 38.05 16.5 38.57 15.84C38.69 15.69 38.81 15.58 38.96 15.49L36.22 17.08C36.08 17.16 35.95 17.28 35.83 17.43C35.31 18.09 35.04 19.43 35 21.44L34.98 27.9C34.98 30.07 35.23 31.82 35.74 33.17C36.25 34.52 37.07 35.52 38.2 36.17C39.04 36.66 39.71 36.76 40.2 36.47L42.94 34.88C42.45 35.17 41.78 35.07 40.94 34.58Z" fill="white"/>
<path d="M39.59 36.78C39.17 36.78 38.68 36.62 38.13 36.3C36.97 35.63 36.12 34.6 35.6 33.22C35.09 31.86 34.83 30.07 34.83 27.89L34.85 21.43C34.89 19.36 35.17 18.02 35.71 17.33C35.84 17.17 35.98 17.04 36.14 16.95L38.88 15.36C38.95 15.32 39.04 15.34 39.08 15.41C39.12 15.48 39.1 15.57 39.03 15.61C38.9 15.68 38.79 15.79 38.68 15.92C38.19 16.55 37.92 17.87 37.88 19.84L37.86 26.3C37.86 28.44 38.11 30.19 38.61 31.52C39.1 32.83 39.91 33.81 41.01 34.45C41.8 34.91 42.42 35.01 42.86 34.75C42.93 34.71 43.02 34.73 43.06 34.8C43.1 34.87 43.08 34.96 43.01 35L40.27 36.59C40.07 36.71 39.84 36.77 39.58 36.77L39.59 36.78ZM38.24 16.08L36.3 17.21C36.17 17.28 36.06 17.39 35.95 17.52C35.46 18.15 35.19 19.47 35.15 21.44L35.13 27.9C35.13 30.04 35.38 31.79 35.88 33.12C36.37 34.43 37.18 35.41 38.28 36.05C39.07 36.51 39.69 36.61 40.13 36.35L42.14 35.18C41.76 35.14 41.34 34.98 40.87 34.71C39.71 34.04 38.86 33.01 38.34 31.63C37.83 30.27 37.57 28.48 37.57 26.3L37.59 19.84C37.62 18.07 37.83 16.83 38.23 16.08H38.24Z" fill="#262028"/>
<path d="M44.01 19.31C45.34 21.98 46.01 25.11 46.03 28.69V33.58C46.01 37.25 45.34 39.68 44.01 40.86C42.68 42.04 40.74 41.9 38.19 40.42C35.67 38.97 33.75 36.9 32.42 34.22C31.09 31.54 30.42 28.41 30.4 24.83V19.94C30.42 16.23 31.1 13.8 32.45 12.65C33.79 11.5 35.72 11.65 38.24 13.11C40.76 14.56 42.68 16.63 44.01 19.3V19.31ZM41.43 31.87L41.45 25.55C41.45 23.35 41.2 21.59 40.68 20.28C40.16 18.97 39.34 18 38.23 17.36C37.15 16.74 36.35 16.76 35.84 17.42C35.32 18.08 35.05 19.42 35.01 21.43L34.99 27.89C34.99 30.06 35.24 31.81 35.75 33.16C36.26 34.51 37.08 35.51 38.21 36.16C39.33 36.81 40.14 36.77 40.64 36.05C41.14 35.33 41.4 33.93 41.43 31.86V31.87Z" fill="#FE4340"/>
<path d="M41.88 41.8C40.81 41.8 39.56 41.39 38.12 40.56C35.59 39.1 33.63 36.99 32.29 34.3C30.96 31.61 30.27 28.43 30.25 24.85V19.96C30.27 16.22 30.98 13.73 32.35 12.56C33.74 11.37 35.75 11.52 38.31 13C40.84 14.46 42.81 16.57 44.14 19.25C45.47 21.93 46.16 25.11 46.18 28.7V33.59C46.16 37.29 45.46 39.78 44.11 40.98C43.49 41.53 42.75 41.8 41.88 41.8ZM34.57 12.06C33.78 12.06 33.1 12.3 32.54 12.78C31.24 13.89 30.57 16.31 30.56 19.95V24.84C30.56 28.38 31.24 31.52 32.55 34.16C33.86 36.8 35.78 38.86 38.26 40.3C40.74 41.73 42.64 41.88 43.91 40.75C45.2 39.6 45.86 37.19 45.87 33.58V28.69C45.87 25.15 45.19 22.01 43.88 19.38C42.57 16.75 40.65 14.68 38.17 13.25C36.79 12.45 35.59 12.06 34.57 12.06ZM39.6 36.79C39.18 36.79 38.69 36.63 38.14 36.31C36.98 35.64 36.13 34.61 35.61 33.23C35.1 31.87 34.84 30.08 34.84 27.9L34.86 21.44C34.9 19.37 35.18 18.03 35.72 17.34C36.29 16.62 37.16 16.58 38.3 17.25C39.44 17.91 40.28 18.91 40.81 20.25C41.34 21.57 41.6 23.36 41.59 25.57L41.57 31.89C41.54 34.01 41.27 35.41 40.75 36.16C40.46 36.59 40.07 36.8 39.58 36.8L39.6 36.79ZM36.86 17.07C36.49 17.07 36.19 17.22 35.95 17.52C35.46 18.15 35.19 19.47 35.15 21.44L35.13 27.9C35.13 30.04 35.38 31.79 35.88 33.12C36.37 34.43 37.18 35.41 38.28 36.05C39.33 36.66 40.06 36.64 40.52 35.98C41 35.28 41.26 33.9 41.28 31.88L41.3 25.56C41.3 23.39 41.05 21.63 40.54 20.35C40.03 19.08 39.23 18.12 38.16 17.5C37.66 17.21 37.23 17.07 36.87 17.07H36.86Z" fill="#262028"/>
<path d="M52.98 38.59L55.72 37L60.84 39.95L58.1 41.54L52.98 38.59Z" fill="white"/>
<path d="M58.1 41.69C58.1 41.69 58.05 41.69 58.03 41.67L52.92 38.72C52.92 38.72 52.85 38.64 52.85 38.59C52.85 38.54 52.88 38.49 52.92 38.46L55.66 36.87C55.66 36.87 55.76 36.84 55.81 36.87L60.92 39.82C60.92 39.82 60.99 39.9 60.99 39.95C60.99 40 60.96 40.05 60.92 40.08L58.18 41.67C58.18 41.67 58.13 41.69 58.11 41.69H58.1ZM53.29 38.59L58.1 41.37L60.54 39.95L55.73 37.17L53.29 38.59Z" fill="#262028"/>
<path d="M62.67 48.44L65.41 46.85L65.39 52.59L62.65 54.19L62.67 48.44Z" fill="white"/>
<path d="M62.65 54.33C62.65 54.33 62.6 54.33 62.58 54.31C62.53 54.28 62.51 54.23 62.51 54.18L62.53 48.43C62.53 48.38 62.56 48.33 62.6 48.3L65.34 46.71C65.34 46.71 65.44 46.68 65.49 46.71C65.54 46.74 65.56 46.79 65.56 46.84L65.54 52.59C65.54 52.64 65.51 52.69 65.47 52.72L62.73 54.31C62.73 54.31 62.68 54.33 62.66 54.33H62.65ZM62.82 48.52L62.8 53.92L65.24 52.5L65.26 47.1L62.82 48.52Z" fill="#262028"/>
<path d="M65.3 45.7L68.04 44.11L68.03 48.36L65.29 49.95L65.3 45.7Z" fill="white"/>
<path d="M65.29 50.1C65.29 50.1 65.24 50.1 65.22 50.08C65.17 50.05 65.15 50 65.15 49.95V45.7C65.16 45.65 65.19 45.6 65.24 45.57L67.98 43.98C67.98 43.98 68.08 43.95 68.13 43.98C68.18 44.01 68.2 44.06 68.2 44.11V48.36C68.19 48.41 68.16 48.46 68.11 48.49L65.37 50.08C65.37 50.08 65.32 50.1 65.3 50.1H65.29ZM65.45 45.79V49.69L67.88 48.27V44.37L65.45 45.79Z" fill="#262028"/>
<path d="M62.68 44.19L65.42 42.6L68.04 44.11L65.3 45.7L62.68 44.19Z" fill="white"/>
<path d="M65.3 45.85C65.3 45.85 65.25 45.85 65.23 45.83L62.61 44.32C62.61 44.32 62.54 44.24 62.54 44.19C62.54 44.14 62.57 44.09 62.61 44.06L65.35 42.47C65.35 42.47 65.45 42.44 65.5 42.47L68.12 43.98C68.12 43.98 68.19 44.06 68.19 44.11C68.19 44.16 68.16 44.21 68.12 44.24L65.38 45.83C65.38 45.83 65.33 45.85 65.31 45.85H65.3ZM62.98 44.19L65.3 45.53L67.74 44.11L65.42 42.77L62.98 44.19Z" fill="#262028"/>
<path d="M57.82 32.59L60.56 31L55.72 37L52.98 38.59L57.82 32.59Z" fill="white"/>
<path d="M52.98 38.74C52.98 38.74 52.9 38.72 52.87 38.69C52.82 38.64 52.82 38.56 52.87 38.5L57.71 32.5C57.71 32.5 57.74 32.47 57.75 32.46L60.49 30.87C60.55 30.83 60.63 30.85 60.68 30.9C60.73 30.95 60.73 31.03 60.68 31.09L55.84 37.09C55.84 37.09 55.81 37.12 55.8 37.13L53.06 38.72C53.06 38.72 53.01 38.74 52.99 38.74H52.98ZM57.91 32.71L53.6 38.06L55.62 36.89L59.93 31.54L57.91 32.71Z" fill="#262028"/>
<path d="M58.12 32.17L60.86 30.57L60.56 31L57.82 32.59L58.12 32.17Z" fill="white"/>
<path d="M57.82 32.74C57.82 32.74 57.74 32.72 57.71 32.69C57.66 32.64 57.66 32.56 57.7 32.5L58 32.07C58 32.07 58.03 32.04 58.05 32.03L60.79 30.44C60.85 30.4 60.93 30.42 60.97 30.47C61.02 30.52 61.02 30.6 60.98 30.66L60.68 31.09C60.68 31.09 60.65 31.12 60.63 31.13L57.89 32.72C57.89 32.72 57.84 32.74 57.82 32.74Z" fill="#262028"/>
<path d="M62.73 27.63L65.47 26.03L65.42 42.6L62.68 44.19L62.73 27.63Z" fill="white"/>
<path d="M62.68 44.34C62.68 44.34 62.63 44.34 62.61 44.32C62.56 44.29 62.54 44.24 62.54 44.19L62.59 27.63C62.59 27.58 62.62 27.53 62.66 27.5L65.4 25.91C65.4 25.91 65.5 25.88 65.55 25.91C65.6 25.94 65.62 25.99 65.62 26.04L65.57 42.6C65.57 42.65 65.54 42.7 65.5 42.73L62.76 44.32C62.76 44.32 62.71 44.34 62.69 44.34H62.68ZM62.88 27.71L62.83 43.93L65.27 42.51L65.32 26.29L62.88 27.71Z" fill="#262028"/>
<path d="M58.1 24.95L60.84 23.36L65.47 26.03L62.73 27.63L58.1 24.95Z" fill="white"/>
<path d="M62.73 27.78C62.73 27.78 62.68 27.78 62.66 27.76L58.03 25.08C58.03 25.08 57.96 25 57.96 24.95C57.96 24.9 57.99 24.85 58.03 24.82L60.77 23.23C60.77 23.23 60.87 23.2 60.92 23.23L65.55 25.91C65.55 25.91 65.62 25.99 65.62 26.04C65.62 26.09 65.59 26.14 65.55 26.17L62.81 27.76C62.81 27.76 62.76 27.78 62.74 27.78H62.73ZM58.39 24.96L62.73 27.46L65.17 26.04L60.83 23.54L58.39 24.96Z" fill="#262028"/>
<path d="M62.68 44.19L65.3 45.7V49.95L62.67 48.44L62.65 54.19L58.06 51.54L58.08 45.79L48.6 40.32L48.4 36.88L58.09 24.95L62.72 27.63L62.67 44.19H62.68ZM58.09 41.54L58.12 32.16L57.82 32.59L52.98 38.59L58.09 41.54Z" fill="#FE4340"/>
<path d="M62.65 54.33C62.65 54.33 62.6 54.33 62.58 54.31L57.99 51.66C57.99 51.66 57.92 51.58 57.92 51.53L57.94 45.87L48.54 40.44C48.54 40.44 48.47 40.37 48.47 40.32L48.27 36.88C48.27 36.88 48.27 36.81 48.3 36.78L57.99 24.85C58.04 24.79 58.12 24.78 58.18 24.81L62.81 27.49C62.81 27.49 62.88 27.57 62.88 27.62L62.83 44.1L65.37 45.57C65.37 45.57 65.44 45.65 65.44 45.7V49.95C65.43 50 65.4 50.05 65.35 50.08C65.3 50.11 65.25 50.11 65.2 50.08L62.8 48.7L62.78 54.19C62.78 54.24 62.75 54.29 62.71 54.32C62.69 54.33 62.66 54.34 62.64 54.34L62.65 54.33ZM58.21 51.45L62.5 53.93L62.52 48.44C62.52 48.39 62.55 48.34 62.59 48.31C62.64 48.28 62.69 48.28 62.74 48.31L65.14 49.69V45.78L62.61 44.31C62.61 44.31 62.54 44.23 62.54 44.18L62.59 27.7L58.14 25.13L48.57 36.92L48.76 40.22L58.17 45.65C58.17 45.65 58.24 45.73 58.24 45.78L58.22 51.44L58.21 51.45ZM58.09 41.69C58.09 41.69 58.04 41.69 58.02 41.67L52.91 38.72C52.91 38.72 52.85 38.66 52.84 38.62C52.84 38.58 52.84 38.53 52.87 38.5L57.71 32.5L58.01 32.08C58.05 32.03 58.12 32 58.18 32.02C58.24 32.04 58.28 32.1 58.28 32.16L58.25 41.54C58.25 41.59 58.22 41.64 58.18 41.67C58.16 41.68 58.13 41.69 58.11 41.69H58.09ZM53.2 38.55L57.94 41.29L57.96 32.64L57.93 32.68L53.2 38.55Z" fill="#262028"/>
<path d="M29.06 38.23V38.89L26.91 37.65V36.99L29.06 38.23Z" fill="#262028"/>
<path d="M29.06 39.04C29.06 39.04 29.01 39.04 28.99 39.02L26.84 37.78C26.84 37.78 26.77 37.7 26.77 37.65V36.99C26.77 36.94 26.8 36.89 26.85 36.86C26.9 36.83 26.95 36.83 27 36.86L29.15 38.1C29.15 38.1 29.22 38.18 29.22 38.23V38.89C29.22 38.94 29.19 38.99 29.14 39.02C29.12 39.03 29.09 39.04 29.07 39.04H29.06ZM27.06 37.56L28.91 38.63V38.32L27.06 37.25V37.56Z" fill="#262028"/>
<path d="M29.23 38.46V39.12C29.23 39.04 29.17 38.95 29.07 38.89V38.23C29.18 38.29 29.23 38.37 29.23 38.46Z" fill="#262028"/>
<path d="M29.22 39.26C29.14 39.26 29.07 39.19 29.07 39.11C29.07 39.11 29.05 39.05 28.98 39.01C28.93 38.98 28.91 38.93 28.91 38.88V38.22C28.91 38.17 28.94 38.12 28.99 38.09C29.04 38.06 29.09 38.06 29.14 38.09C29.29 38.18 29.38 38.31 29.38 38.45V39.11C29.38 39.19 29.31 39.26 29.23 39.26H29.22Z" fill="#262028"/>
<path d="M29.23 38.46V39.12C29.23 39.04 29.17 38.95 29.07 38.89V38.23C29.18 38.29 29.23 38.37 29.23 38.46Z" fill="#262028"/>
<path d="M29.22 39.26C29.14 39.26 29.07 39.19 29.07 39.11C29.07 39.11 29.05 39.05 28.98 39.01C28.93 38.98 28.91 38.93 28.91 38.88V38.22C28.91 38.17 28.94 38.12 28.99 38.09C29.04 38.06 29.09 38.06 29.14 38.09C29.29 38.18 29.38 38.31 29.38 38.45V39.11C29.38 39.19 29.31 39.26 29.23 39.26H29.22Z" fill="#262028"/>
<path d="M31.01 38.86V39.52C31.01 39.76 30.93 40 30.77 40.23V39.57C30.93 39.34 31.01 39.1 31.01 38.86Z" fill="#262028"/>
<path d="M30.77 40.37C30.77 40.37 30.74 40.37 30.73 40.37C30.67 40.35 30.63 40.29 30.63 40.23V39.57C30.63 39.57 30.64 39.51 30.66 39.49C30.8 39.29 30.87 39.08 30.87 38.87C30.87 38.79 30.94 38.72 31.02 38.72C31.09 38.72 31.17 38.79 31.17 38.87V39.53C31.17 39.81 31.08 40.07 30.9 40.32C30.87 40.36 30.83 40.38 30.78 40.38L30.77 40.37Z" fill="#262028"/>
<path d="M31.01 38.86V39.52C31.01 39.76 30.93 40 30.77 40.23V39.57C30.93 39.34 31.01 39.1 31.01 38.86Z" fill="#262028"/>
<path d="M30.77 40.37C30.77 40.37 30.74 40.37 30.73 40.37C30.67 40.35 30.63 40.29 30.63 40.23V39.57C30.63 39.57 30.64 39.51 30.66 39.49C30.8 39.29 30.87 39.08 30.87 38.87C30.87 38.79 30.94 38.72 31.02 38.72C31.09 38.72 31.17 38.79 31.17 38.87V39.53C31.17 39.81 31.08 40.07 30.9 40.32C30.87 40.36 30.83 40.38 30.78 40.38L30.77 40.37Z" fill="#262028"/>
<path d="M24.4 39.5V38.84C24.4 39.33 24.73 39.83 25.38 40.2C26.35 40.76 27.77 40.9 28.96 40.62V41.28C27.77 41.56 26.35 41.42 25.38 40.86C24.73 40.48 24.4 39.99 24.41 39.5H24.4Z" fill="#262028"/>
<path d="M27.72 41.57C26.83 41.57 25.96 41.37 25.31 40.99C24.63 40.6 24.26 40.07 24.26 39.5V38.84C24.26 38.76 24.33 38.69 24.41 38.69C24.49 38.69 24.56 38.76 24.56 38.84C24.56 39.3 24.88 39.74 25.46 40.07C26.37 40.6 27.73 40.76 28.93 40.48C28.97 40.47 29.02 40.48 29.06 40.51C29.1 40.54 29.12 40.58 29.12 40.63V41.29C29.12 41.36 29.07 41.42 29 41.43C28.59 41.53 28.16 41.57 27.73 41.57H27.72ZM24.58 39.72C24.67 40.1 24.97 40.45 25.46 40.73C26.34 41.24 27.65 41.41 28.82 41.16V40.81C27.6 41.05 26.25 40.87 25.32 40.33C25.01 40.15 24.77 39.95 24.59 39.72H24.58Z" fill="#262028"/>
<path d="M28.96 40.62V41.28C28.78 41.32 28.6 41.35 28.41 41.38V40.72C28.6 40.7 28.78 40.66 28.96 40.62Z" fill="#262028"/>
<path d="M28.41 41.53C28.41 41.53 28.34 41.52 28.31 41.49C28.28 41.46 28.26 41.42 28.26 41.38V40.72C28.26 40.65 28.32 40.58 28.39 40.57C28.57 40.55 28.75 40.52 28.92 40.48C28.96 40.47 29.01 40.48 29.05 40.51C29.09 40.54 29.11 40.58 29.11 40.63V41.29C29.11 41.36 29.06 41.42 28.99 41.43C28.81 41.47 28.62 41.51 28.42 41.53H28.4H28.41ZM28.56 40.85V41.21C28.64 41.2 28.73 41.18 28.81 41.16V40.81C28.73 40.83 28.64 40.84 28.56 40.85Z" fill="#262028"/>
<path d="M28.41 40.72V41.38C27.35 41.51 26.2 41.34 25.38 40.86C24.73 40.48 24.4 39.99 24.41 39.5V38.84C24.41 39.33 24.74 39.83 25.39 40.2C26.21 40.68 27.36 40.85 28.42 40.72H28.41Z" fill="#262028"/>
<path d="M27.71 41.57C26.82 41.57 25.95 41.37 25.3 40.99C24.62 40.6 24.25 40.07 24.25 39.5V38.84C24.25 38.76 24.32 38.69 24.4 38.69C24.48 38.69 24.55 38.76 24.55 38.84C24.55 39.3 24.87 39.74 25.45 40.07C26.22 40.51 27.32 40.7 28.39 40.57C28.43 40.57 28.48 40.57 28.51 40.61C28.54 40.64 28.56 40.68 28.56 40.72V41.38C28.56 41.45 28.5 41.52 28.43 41.53C28.19 41.56 27.96 41.57 27.72 41.57H27.71ZM24.57 39.72C24.66 40.1 24.96 40.45 25.45 40.73C26.19 41.16 27.23 41.35 28.26 41.24V40.88C27.18 40.98 26.09 40.78 25.31 40.32C25 40.14 24.76 39.94 24.58 39.71L24.57 39.72Z" fill="#262028"/>
<path d="M42.24 45.92V46.58C42.03 46.46 41.69 46.46 41.48 46.58V45.92C41.69 45.8 42.03 45.8 42.24 45.92Z" fill="#262028"/>
<path d="M42.24 46.73C42.24 46.73 42.19 46.73 42.17 46.71C42.01 46.62 41.72 46.62 41.56 46.71C41.51 46.74 41.46 46.74 41.41 46.71C41.36 46.68 41.34 46.63 41.34 46.58V45.92C41.34 45.87 41.37 45.82 41.42 45.79C41.67 45.64 42.07 45.64 42.33 45.79C42.38 45.82 42.4 45.87 42.4 45.92V46.58C42.4 46.63 42.37 46.68 42.32 46.71C42.3 46.72 42.27 46.73 42.25 46.73H42.24ZM41.86 46.34C41.94 46.34 42.02 46.34 42.09 46.37V46.02C41.95 45.97 41.77 45.97 41.63 46.02V46.37C41.7 46.35 41.78 46.35 41.86 46.35V46.34Z" fill="#262028"/>
<path d="M42.24 45.92V46.58C42.1 46.5 41.92 46.47 41.75 46.5V45.84C41.92 45.82 42.11 45.84 42.24 45.92Z" fill="#262028"/>
<path d="M42.24 46.73C42.24 46.73 42.19 46.73 42.17 46.71C42.07 46.65 41.92 46.63 41.77 46.64C41.73 46.64 41.69 46.64 41.65 46.6C41.62 46.57 41.6 46.53 41.6 46.49V45.83C41.6 45.75 41.66 45.69 41.73 45.68C41.94 45.65 42.16 45.69 42.32 45.78C42.37 45.81 42.39 45.86 42.39 45.91V46.57C42.39 46.62 42.36 46.67 42.31 46.7C42.29 46.71 42.26 46.72 42.24 46.72V46.73ZM41.9 46.34C41.97 46.34 42.03 46.35 42.09 46.37V46.02C42.03 46 41.97 45.99 41.9 45.98V46.34Z" fill="#262028"/>
<path d="M41.74 45.84V46.5C41.64 46.51 41.55 46.54 41.47 46.58V45.92C41.55 45.88 41.64 45.85 41.74 45.84Z" fill="#262028"/>
<path d="M41.48 46.73C41.48 46.73 41.43 46.73 41.41 46.71C41.36 46.68 41.34 46.63 41.34 46.58V45.92C41.34 45.87 41.37 45.82 41.42 45.79C41.51 45.74 41.62 45.7 41.74 45.69C41.78 45.69 41.82 45.69 41.86 45.73C41.89 45.76 41.91 45.8 41.91 45.84V46.5C41.91 46.57 41.85 46.64 41.78 46.65C41.7 46.66 41.63 46.68 41.57 46.71C41.55 46.72 41.52 46.73 41.5 46.73H41.48Z" fill="#262028"/>
<path d="M38.15 45.93V46.59L28.95 41.28L28.96 40.62L38.15 45.93Z" fill="#262028"/>
<path d="M38.15 46.74C38.15 46.74 38.1 46.74 38.08 46.72L28.88 41.41C28.88 41.41 28.81 41.33 28.81 41.28V40.62C28.81 40.57 28.84 40.52 28.89 40.49C28.94 40.46 28.99 40.46 29.04 40.49L38.24 45.8C38.24 45.8 38.31 45.88 38.31 45.93V46.59C38.31 46.64 38.28 46.69 38.23 46.72C38.21 46.73 38.18 46.74 38.16 46.74H38.15ZM29.1 41.19L38 46.33V46.02L29.1 40.88V41.19Z" fill="#262028"/>
<path d="M41.48 45.92V46.58L40.05 47.41L40.06 46.75L41.48 45.92Z" fill="#262028"/>
<path d="M40.05 47.56C40.05 47.56 40 47.56 39.98 47.54C39.93 47.51 39.91 47.46 39.91 47.41V46.75C39.91 46.7 39.94 46.65 39.99 46.62L41.41 45.79C41.41 45.79 41.51 45.76 41.56 45.79C41.61 45.82 41.63 45.87 41.63 45.92V46.58C41.63 46.63 41.6 46.68 41.55 46.71L40.13 47.54C40.13 47.54 40.08 47.56 40.06 47.56H40.05ZM40.2 46.84V47.15L41.32 46.5V46.19L40.2 46.84Z" fill="#262028"/>
<path d="M39.9 47.63V46.97C39.9 46.89 39.95 46.81 40.06 46.75V47.41C39.96 47.47 39.9 47.55 39.9 47.63Z" fill="#262028"/>
<path d="M39.9 47.78C39.82 47.78 39.75 47.71 39.75 47.63V46.97C39.75 46.83 39.84 46.71 39.98 46.62C40.03 46.59 40.08 46.59 40.13 46.62C40.18 46.65 40.2 46.7 40.2 46.75V47.41C40.2 47.46 40.17 47.51 40.12 47.54C40.06 47.57 40.04 47.61 40.04 47.63C40.04 47.71 39.97 47.78 39.89 47.78H39.9Z" fill="#262028"/>
<path d="M40.06 46.75V47.41C40.06 47.41 39.99 47.46 39.96 47.49V46.83C39.96 46.83 40.02 46.78 40.06 46.75Z" fill="#262028"/>
<path d="M39.96 47.64C39.96 47.64 39.92 47.64 39.91 47.64C39.85 47.62 39.81 47.56 39.81 47.5V46.84C39.81 46.84 39.83 46.77 39.85 46.74C39.89 46.7 39.93 46.66 39.98 46.63C40.03 46.6 40.08 46.6 40.13 46.63C40.18 46.66 40.2 46.71 40.2 46.76V47.42C40.2 47.47 40.17 47.52 40.12 47.55C40.09 47.56 40.07 47.58 40.06 47.6C40.03 47.63 39.99 47.65 39.95 47.65L39.96 47.64Z" fill="#262028"/>
<path d="M39.96 46.83V47.49C39.96 47.49 39.9 47.58 39.9 47.63V46.97C39.9 46.97 39.92 46.87 39.96 46.83Z" fill="#262028"/>
<path d="M39.9 47.78C39.82 47.78 39.75 47.71 39.75 47.63V46.97C39.75 46.89 39.78 46.8 39.85 46.73C39.89 46.68 39.96 46.67 40.01 46.69C40.07 46.71 40.11 46.77 40.11 46.83V47.49C40.11 47.49 40.1 47.56 40.07 47.59C40.06 47.61 40.05 47.62 40.05 47.63C40.05 47.71 39.98 47.78 39.9 47.78Z" fill="#262028"/>
<path d="M44.55 46.62V47.28C44.55 47.47 44.5 47.65 44.41 47.83V47.17C44.51 46.99 44.55 46.8 44.55 46.62Z" fill="#262028"/>
<path d="M44.4 47.98C44.4 47.98 44.38 47.98 44.36 47.98C44.29 47.96 44.25 47.9 44.25 47.83V47.17C44.25 47.17 44.25 47.12 44.27 47.1C44.35 46.94 44.39 46.78 44.4 46.62C44.4 46.54 44.47 46.47 44.55 46.47C44.63 46.47 44.7 46.54 44.7 46.62V47.28C44.7 47.49 44.64 47.7 44.54 47.9C44.51 47.95 44.46 47.98 44.41 47.98H44.4Z" fill="#262028"/>
<path d="M44.55 46.62V47.28C44.55 47.47 44.5 47.65 44.41 47.83V47.17C44.51 46.99 44.55 46.8 44.55 46.62Z" fill="#262028"/>
<path d="M44.4 47.98C44.4 47.98 44.38 47.98 44.36 47.98C44.29 47.96 44.25 47.9 44.25 47.83V47.17C44.25 47.17 44.25 47.12 44.27 47.1C44.35 46.94 44.39 46.78 44.4 46.62C44.4 46.54 44.47 46.47 44.55 46.47C44.63 46.47 44.7 46.54 44.7 46.62V47.28C44.7 47.49 44.64 47.7 44.54 47.9C44.51 47.95 44.46 47.98 44.41 47.98H44.4Z" fill="#262028"/>
<path d="M44.41 47.18L44.4 47.83L42.24 46.58V45.92L44.41 47.18Z" fill="#262028"/>
<path d="M44.4 47.98C44.4 47.98 44.35 47.98 44.33 47.96L42.16 46.71C42.16 46.71 42.09 46.63 42.09 46.58V45.92C42.09 45.87 42.12 45.82 42.17 45.79C42.22 45.76 42.27 45.76 42.32 45.79L44.49 47.04C44.49 47.04 44.56 47.12 44.56 47.17V47.83C44.56 47.88 44.53 47.93 44.48 47.96C44.46 47.97 44.43 47.98 44.41 47.98H44.4ZM42.38 46.49L44.25 47.57V47.26L42.38 46.18V46.49Z" fill="#262028"/>
<path d="M37.94 47.26V46.6C37.94 47.09 38.27 47.59 38.92 47.96C39.82 48.48 41.1 48.64 42.23 48.44V49.1C41.1 49.3 39.82 49.14 38.92 48.62C38.27 48.24 37.94 47.75 37.95 47.26H37.94Z" fill="#262028"/>
<path d="M41.25 49.33C40.36 49.33 39.49 49.13 38.84 48.75C38.16 48.36 37.79 47.83 37.79 47.26V46.6C37.79 46.52 37.86 46.45 37.94 46.45C38.02 46.45 38.09 46.52 38.09 46.6C38.09 47.06 38.41 47.5 38.99 47.83C39.83 48.32 41.06 48.49 42.2 48.29C42.24 48.29 42.29 48.29 42.32 48.32C42.35 48.35 42.37 48.39 42.37 48.43V49.09C42.37 49.16 42.32 49.22 42.25 49.24C41.92 49.3 41.59 49.33 41.25 49.33ZM38.11 47.48C38.2 47.86 38.5 48.21 38.98 48.49C39.79 48.96 40.96 49.14 42.07 48.97V48.61C40.92 48.78 39.69 48.58 38.84 48.09C38.53 47.91 38.29 47.71 38.11 47.48Z" fill="#262028"/>
<path d="M42.23 48.44V49.1C42.14 49.12 42.04 49.13 41.95 49.14V48.48C42.05 48.47 42.14 48.45 42.23 48.44Z" fill="#262028"/>
<path d="M41.95 49.29C41.95 49.29 41.88 49.28 41.85 49.25C41.82 49.22 41.8 49.18 41.8 49.14V48.48C41.8 48.4 41.86 48.34 41.93 48.33C42.02 48.32 42.11 48.31 42.2 48.29C42.24 48.29 42.29 48.29 42.32 48.32C42.35 48.35 42.37 48.39 42.37 48.43V49.09C42.37 49.16 42.32 49.22 42.25 49.24C42.16 49.26 42.06 49.27 41.96 49.28H41.94L41.95 49.29Z" fill="#262028"/>
<path d="M41.95 48.48V49.14C40.89 49.27 39.74 49.1 38.92 48.62C38.27 48.24 37.94 47.75 37.95 47.26V46.6C37.95 47.09 38.28 47.59 38.93 47.96C39.76 48.44 40.9 48.61 41.96 48.48H41.95Z" fill="#262028"/>
<path d="M41.25 49.33C40.36 49.33 39.49 49.13 38.84 48.75C38.16 48.36 37.79 47.83 37.79 47.26V46.6C37.79 46.52 37.86 46.45 37.94 46.45C38.02 46.45 38.09 46.52 38.09 46.6C38.09 47.06 38.41 47.5 38.99 47.83C39.76 48.27 40.86 48.46 41.93 48.33C41.97 48.33 42.02 48.33 42.05 48.37C42.08 48.4 42.1 48.44 42.1 48.48V49.14C42.1 49.21 42.04 49.28 41.97 49.29C41.73 49.32 41.49 49.33 41.26 49.33H41.25ZM38.11 47.48C38.2 47.86 38.5 48.21 38.98 48.49C39.72 48.92 40.76 49.11 41.79 49V48.64C40.71 48.74 39.62 48.54 38.83 48.09C38.52 47.91 38.28 47.71 38.1 47.48H38.11Z" fill="#262028"/>
<path d="M43.57 45.26C44.47 45.78 44.75 46.52 44.4 47.18L42.23 45.93C42.02 45.81 41.68 45.81 41.47 45.93L40.05 46.76C39.84 46.88 39.84 47.08 40.05 47.2L42.22 48.45C41.09 48.65 39.81 48.49 38.91 47.97C37.96 47.42 37.7 46.62 38.15 45.94L28.95 40.63C27.76 40.91 26.34 40.77 25.37 40.21C24.52 39.72 24.23 39.03 24.49 38.4L26.64 39.64C26.78 39.72 26.98 39.75 27.17 39.72L28.48 39.52C28.67 39.49 28.81 39.41 28.86 39.3L29.21 38.54C29.26 38.43 29.21 38.31 29.07 38.23L26.92 36.99C28 36.84 29.19 37.01 30.04 37.5C31.01 38.06 31.26 38.88 30.78 39.57L39.94 44.86C41.14 44.56 42.6 44.69 43.58 45.26H43.57Z" fill="white"/>
<path d="M41.26 48.68C40.37 48.68 39.5 48.48 38.85 48.1C38.3 47.78 37.95 47.37 37.84 46.91C37.77 46.6 37.81 46.29 37.96 45.99L28.94 40.78C27.69 41.06 26.27 40.88 25.31 40.33C24.43 39.82 24.07 39.06 24.36 38.34C24.38 38.3 24.41 38.27 24.45 38.26C24.49 38.25 24.54 38.26 24.57 38.27L26.72 39.51C26.83 39.57 27 39.6 27.15 39.57L28.46 39.37C28.61 39.35 28.71 39.28 28.73 39.23L29.08 38.47C29.08 38.47 29.02 38.37 29 38.36L26.85 37.12C26.8 37.09 26.77 37.02 26.78 36.96C26.79 36.9 26.84 36.85 26.91 36.84C28.07 36.68 29.27 36.87 30.12 37.36C30.68 37.68 31.03 38.1 31.14 38.57C31.21 38.89 31.16 39.21 30.99 39.51L39.96 44.69C41.23 44.39 42.67 44.56 43.65 45.12C44.6 45.67 44.94 46.48 44.54 47.23C44.52 47.27 44.49 47.29 44.45 47.3C44.41 47.31 44.37 47.3 44.33 47.29L42.16 46.04C42 45.95 41.71 45.95 41.55 46.04L40.13 46.87C40.07 46.9 40.05 46.94 40.05 46.96C40.05 46.98 40.07 47.02 40.13 47.05L42.3 48.3C42.35 48.33 42.38 48.39 42.37 48.45C42.36 48.51 42.31 48.56 42.25 48.57C41.92 48.63 41.59 48.66 41.25 48.66L41.26 48.68ZM28.96 40.48C28.96 40.48 29.01 40.48 29.03 40.5L38.23 45.81C38.23 45.81 38.29 45.86 38.3 45.9C38.3 45.94 38.3 45.98 38.28 46.02C38.11 46.28 38.05 46.57 38.12 46.84C38.21 47.22 38.51 47.56 38.99 47.84C39.73 48.27 40.76 48.45 41.77 48.36L39.98 47.33C39.83 47.24 39.75 47.12 39.75 46.98C39.75 46.84 39.83 46.72 39.98 46.63L41.4 45.8C41.65 45.65 42.05 45.65 42.31 45.8L44.34 46.97C44.54 46.41 44.23 45.82 43.5 45.39C42.58 44.86 41.16 44.7 39.97 45C39.93 45 39.89 45 39.86 44.98L30.7 39.69C30.7 39.69 30.64 39.63 30.63 39.59C30.63 39.55 30.63 39.51 30.65 39.47C30.84 39.2 30.9 38.91 30.84 38.63C30.75 38.25 30.45 37.9 29.96 37.62C29.29 37.23 28.33 37.04 27.39 37.09L29.14 38.1C29.35 38.22 29.43 38.41 29.34 38.6L28.99 39.36C28.92 39.52 28.73 39.63 28.49 39.67L27.18 39.87C26.96 39.9 26.72 39.87 26.55 39.77L24.56 38.62C24.44 39.15 24.75 39.68 25.43 40.08C26.34 40.61 27.7 40.77 28.9 40.49C28.91 40.49 28.92 40.49 28.93 40.49L28.96 40.48Z" fill="#262028"/>
<path d="M60.79 54.71C60.67 54.97 60.42 55.18 60.17 55.07C59.97 54.99 59.93 54.76 59.98 54.55C60.32 53.14 60.5 51.72 60.26 50.29C60.17 49.75 59.82 48.51 60.65 48.36C61.31 48.24 61.54 49.23 61.6 49.7C61.81 51.41 61.5 53.17 60.8 54.72L60.79 54.71Z" fill="white"/>
<path d="M60.31 55.25C60.24 55.25 60.18 55.24 60.11 55.21C59.87 55.11 59.76 54.83 59.83 54.52C60.22 52.89 60.31 51.56 60.11 50.32C60.1 50.26 60.09 50.19 60.07 50.11C59.98 49.64 59.84 48.94 60.13 48.52C60.24 48.36 60.41 48.25 60.62 48.21C60.82 48.17 61 48.21 61.16 48.33C61.57 48.63 61.7 49.37 61.74 49.67C61.95 51.33 61.66 53.14 60.93 54.77C60.81 55.03 60.58 55.24 60.31 55.24V55.25ZM60.75 48.5C60.75 48.5 60.7 48.5 60.67 48.5C60.53 48.52 60.44 48.58 60.37 48.68C60.16 48.99 60.28 49.62 60.36 50.04C60.38 50.12 60.39 50.2 60.4 50.26C60.61 51.54 60.52 52.91 60.12 54.58C60.11 54.63 60.06 54.86 60.23 54.93C60.42 55.01 60.59 54.81 60.66 54.65C61.37 53.07 61.65 51.32 61.45 49.71C61.4 49.29 61.25 48.76 60.99 48.57C60.92 48.52 60.84 48.49 60.76 48.49L60.75 48.5Z" fill="#262028"/>
<path d="M60.68 63.57C60.53 63.3 60.26 63.11 59.99 62.97C59.86 62.9 59.75 62.81 59.6 62.75C59.44 62.69 59.2 62.61 59.05 62.72C58.93 62.81 58.84 62.98 58.85 63.14C58.85 63.25 58.91 63.34 58.99 63.42C59.1 63.53 59.26 63.63 59.4 63.67C59.56 63.71 59.7 63.78 59.82 63.9C59.97 64.06 60.08 64.21 60.3 64.25C60.6 64.3 60.86 63.99 60.74 63.68C60.72 63.64 60.71 63.6 60.69 63.57H60.68Z" fill="#262028"/>
<path d="M58.3 64.04C58.26 63.97 58.21 63.91 58.14 63.87C58.03 63.81 57.89 63.81 57.77 63.82C57.66 63.82 57.52 63.82 57.41 63.84C57.31 63.86 57.23 63.89 57.13 63.88C56.98 63.86 56.83 63.83 56.68 63.82C56.6 63.82 56.52 63.82 56.45 63.84C56.28 63.91 56.23 64.18 56.3 64.34C56.34 64.43 56.42 64.5 56.52 64.54C56.66 64.6 56.84 64.64 56.99 64.63C57.15 64.62 57.31 64.63 57.46 64.7C57.72 64.82 58.02 64.99 58.27 64.75C58.34 64.69 58.37 64.59 58.38 64.5C58.39 64.36 58.38 64.17 58.31 64.03L58.3 64.04Z" fill="#262028"/>
<path d="M60.75 54.22C60.71 54.01 58.66 53.93 58.22 53.97C57.74 54.02 57.6 53.15 57.47 53.66C57.3 54.37 57.21 56.33 57.21 57.05C57.21 58.01 57.35 62.23 57.36 63.31C57.36 63.61 57.38 63.94 57.6 64.12C57.76 64.26 58.11 64.23 58.27 64.04C58.45 63.82 59.13 56.62 59.13 56.62H59.27C59.27 56.62 59.62 63.27 59.7 63.41C59.9 63.75 60.49 63.81 60.6 63.47C60.74 63.06 60.82 54.62 60.74 54.21L60.75 54.22Z" fill="#3A2C99"/>
<path d="M57.88 64.36C57.74 64.36 57.61 64.32 57.51 64.24C57.22 64 57.22 63.55 57.22 63.31C57.22 62.75 57.18 61.36 57.14 60.01C57.11 58.73 57.07 57.51 57.07 57.05C57.07 56.39 57.15 54.37 57.33 53.62C57.35 53.54 57.39 53.38 57.53 53.35C57.67 53.32 57.75 53.43 57.83 53.55C57.95 53.71 58.06 53.83 58.21 53.82C58.24 53.82 60.81 53.75 60.9 54.19C60.98 54.56 60.93 63.02 60.76 63.53C60.7 63.71 60.53 63.83 60.32 63.85C60.03 63.88 59.73 63.73 59.59 63.5C59.53 63.39 59.39 61.44 59.19 57.7C58.93 60.39 58.56 63.94 58.4 64.14C58.3 64.26 58.14 64.34 57.96 64.36C57.94 64.36 57.91 64.36 57.89 64.36H57.88ZM57.61 53.74C57.45 54.48 57.36 56.38 57.37 57.05C57.37 57.51 57.41 58.73 57.44 60.01C57.48 61.36 57.51 62.75 57.52 63.31C57.52 63.6 57.55 63.88 57.71 64.01C57.76 64.05 57.84 64.07 57.93 64.06C58.02 64.06 58.11 64.01 58.16 63.96C58.3 63.6 58.73 59.38 58.99 56.61C58.99 56.54 59.06 56.48 59.13 56.48H59.27C59.35 56.48 59.42 56.54 59.42 56.62C59.55 59.17 59.77 63.03 59.84 63.36C59.93 63.51 60.13 63.57 60.28 63.55C60.35 63.55 60.44 63.52 60.47 63.43C60.58 63.07 60.7 55.08 60.61 54.29C60.33 54.16 58.7 54.07 58.24 54.11C57.93 54.14 57.73 53.9 57.61 53.74Z" fill="#262028"/>
<path d="M61.08 49.6C61.06 50.86 60.67 52.11 60.8 53.37C60.87 54.01 61.04 54.79 60.39 55.18C60.12 55.34 59.8 55.4 59.5 55.45C59.12 55.51 58.74 55.56 58.36 55.52C58.07 55.49 57.55 55.42 57.4 55.14C57.3 54.95 57.3 54.62 57.29 54.41C57.27 54.18 57.16 50.32 57.41 49.73C57.71 49 58.68 48.67 59.38 48.44C59.84 48.29 60.3 48.18 60.7 48.54C61 48.81 61.09 49.22 61.08 49.61V49.6Z" fill="white"/>
<path d="M58.64 55.68C58.54 55.68 58.45 55.68 58.35 55.67C57.94 55.63 57.45 55.54 57.27 55.21C57.17 55.02 57.16 54.76 57.15 54.54C57.15 54.5 57.15 54.46 57.15 54.42C57.15 54.38 57 50.34 57.28 49.67C57.62 48.86 58.65 48.52 59.34 48.3C59.81 48.15 60.34 48.02 60.8 48.43C61.1 48.69 61.24 49.09 61.23 49.61C61.23 50.14 61.15 50.68 61.08 51.2C60.98 51.91 60.88 52.64 60.95 53.36C60.95 53.43 60.97 53.5 60.97 53.57C61.04 54.17 61.13 54.91 60.47 55.31C60.18 55.48 59.86 55.55 59.52 55.6C59.25 55.64 58.94 55.69 58.63 55.69L58.64 55.68ZM60.07 48.44C59.89 48.44 59.68 48.49 59.43 48.57C58.8 48.78 57.84 49.09 57.55 49.77C57.32 50.32 57.42 54.07 57.44 54.39C57.44 54.43 57.44 54.47 57.44 54.52C57.44 54.71 57.46 54.94 57.53 55.06C57.66 55.29 58.2 55.35 58.37 55.37C58.74 55.41 59.12 55.36 59.47 55.3C59.77 55.25 60.07 55.2 60.31 55.05C60.81 54.75 60.74 54.17 60.67 53.6C60.67 53.53 60.65 53.46 60.65 53.39C60.57 52.64 60.68 51.89 60.78 51.16C60.85 50.65 60.92 50.12 60.93 49.61C60.93 49.18 60.82 48.86 60.6 48.65C60.44 48.51 60.27 48.45 60.07 48.45V48.44Z" fill="#262028"/>
<path d="M60.39 46.72C60.36 46.3 60.18 45.87 59.83 45.63C59.46 45.38 58.8 45.34 58.41 45.58C58.27 45.67 58.22 45.95 58.16 46.1C58.06 46.36 58.01 46.63 57.99 46.9C57.97 47.2 57.99 47.51 58.07 47.8C58.11 47.96 58.18 48.14 58.33 48.22C58.43 48.28 58.55 48.28 58.67 48.27C58.67 48.69 58.69 48.76 58.71 48.83C58.84 49.19 59.96 49.04 59.96 48.62C59.96 48.46 59.95 48.32 59.91 47.85C60.04 47.76 60.16 47.64 60.25 47.5C60.39 47.27 60.42 46.99 60.4 46.72H60.39Z" fill="white"/>
<path d="M59.17 49.18C58.89 49.18 58.63 49.09 58.56 48.88C58.53 48.79 58.51 48.71 58.51 48.42C58.42 48.42 58.33 48.4 58.25 48.35C58.04 48.23 57.96 48 57.92 47.84C57.84 47.53 57.81 47.21 57.84 46.89C57.86 46.6 57.92 46.32 58.02 46.05C58.03 46.02 58.04 45.98 58.06 45.94C58.11 45.77 58.18 45.55 58.33 45.45C58.76 45.19 59.48 45.21 59.91 45.5C60.27 45.74 60.5 46.18 60.54 46.7C60.57 47.04 60.51 47.34 60.37 47.57C60.29 47.69 60.19 47.81 60.06 47.91L60.08 48.16C60.1 48.38 60.1 48.49 60.1 48.61C60.1 48.87 59.85 49.08 59.43 49.15C59.35 49.16 59.26 49.17 59.17 49.17V49.18ZM58.66 48.12C58.66 48.12 58.73 48.13 58.76 48.16C58.79 48.19 58.81 48.23 58.81 48.27C58.81 48.66 58.82 48.72 58.84 48.77C58.86 48.84 59.09 48.91 59.38 48.86C59.62 48.82 59.8 48.71 59.8 48.61C59.8 48.5 59.8 48.4 59.78 48.18L59.76 47.85C59.76 47.8 59.78 47.75 59.82 47.72C59.95 47.63 60.05 47.53 60.12 47.42C60.26 47.19 60.27 46.92 60.25 46.73C60.22 46.31 60.03 45.94 59.75 45.75C59.42 45.52 58.82 45.5 58.49 45.71C58.43 45.75 58.37 45.93 58.34 46.03C58.33 46.08 58.31 46.12 58.3 46.16C58.21 46.4 58.15 46.66 58.13 46.92C58.11 47.21 58.13 47.5 58.2 47.77C58.25 47.95 58.3 48.05 58.38 48.1C58.45 48.14 58.55 48.14 58.64 48.13H58.65L58.66 48.12Z" fill="#262028"/>
<path d="M58.34 45.95C58.34 45.95 58.29 45.9 58.26 45.88C58.18 45.82 58.09 45.76 58.07 45.65C58.05 45.56 58.09 45.47 58.15 45.41C58.21 45.35 58.29 45.3 58.36 45.26C58.56 45.16 58.78 45.07 59 45.03C59.54 44.94 60.11 45.16 60.46 45.57H60.47C61.14 46.41 60.8 47.91 59.65 48.08C59.52 48.1 59.37 48.1 59.25 48.04C59.12 47.97 59.04 47.85 59 47.71C58.95 47.53 59.02 47.41 59.06 47.24C59.08 47.14 59.08 47.02 59 46.96C58.78 46.78 58.69 47.17 58.52 47.15C58.46 47.15 58.42 47.1 58.41 47.04C58.4 46.99 58.41 46.93 58.41 46.87C58.44 46.72 58.45 46.56 58.49 46.41C58.52 46.28 58.51 46.22 58.45 46.1C58.41 46.03 58.38 45.98 58.34 45.94V45.95Z" fill="#262028"/>
<path d="M59.51 48.25C59.39 48.25 59.28 48.23 59.19 48.18C59.04 48.1 58.92 47.95 58.86 47.76C58.81 47.58 58.86 47.45 58.89 47.33C58.9 47.3 58.91 47.26 58.92 47.22C58.94 47.16 58.92 47.1 58.91 47.09C58.9 47.08 58.89 47.08 58.89 47.08C58.89 47.08 58.85 47.13 58.82 47.15C58.75 47.23 58.66 47.33 58.51 47.32C58.39 47.32 58.3 47.22 58.26 47.1C58.24 47.01 58.26 46.93 58.26 46.87C58.26 46.82 58.28 46.77 58.28 46.72C58.3 46.61 58.31 46.51 58.34 46.4C58.36 46.31 58.36 46.28 58.31 46.19C58.28 46.13 58.26 46.1 58.22 46.07C58.22 46.07 58.18 46.03 58.15 46.01C58.05 45.94 57.94 45.85 57.91 45.69C57.88 45.57 57.93 45.43 58.03 45.32C58.11 45.24 58.2 45.18 58.29 45.14C58.55 45.01 58.76 44.93 58.98 44.9C59.57 44.8 60.2 45.04 60.58 45.5C60.98 45.99 61.08 46.69 60.84 47.3C60.63 47.83 60.21 48.18 59.68 48.26C59.62 48.26 59.57 48.27 59.51 48.27V48.25ZM58.9 46.77C58.96 46.77 59.03 46.79 59.1 46.85C59.21 46.94 59.25 47.1 59.21 47.28C59.2 47.33 59.19 47.37 59.17 47.41C59.14 47.51 59.12 47.58 59.14 47.67C59.17 47.78 59.24 47.87 59.32 47.91C59.39 47.95 59.5 47.96 59.63 47.94C60.05 47.88 60.39 47.6 60.56 47.17C60.75 46.67 60.67 46.07 60.36 45.68C60.04 45.29 59.52 45.1 59.03 45.18C58.85 45.21 58.66 45.28 58.43 45.39C58.37 45.42 58.3 45.46 58.26 45.5C58.23 45.53 58.21 45.58 58.22 45.61C58.22 45.65 58.28 45.7 58.34 45.74C58.39 45.78 58.42 45.8 58.45 45.83C58.51 45.89 58.55 45.95 58.59 46.03C58.67 46.19 58.68 46.28 58.65 46.44C58.63 46.54 58.61 46.64 58.6 46.74C58.6 46.79 58.58 46.85 58.58 46.9C58.58 46.93 58.58 46.96 58.58 46.98L58.63 46.93C58.68 46.87 58.79 46.76 58.92 46.76L58.9 46.77Z" fill="#262028"/>
<path d="M56.65 56.06C56.68 55.97 56.7 55.88 56.72 55.79C56.75 55.63 56.77 55.44 56.67 55.31C56.63 55.26 56.59 55.22 56.53 55.19C56.5 55.18 56.42 55.13 56.38 55.15C56.36 55.15 56.34 55.18 56.33 55.19L56.13 55.44C56.07 55.51 56.01 55.62 55.94 55.67C55.8 55.76 55.66 55.87 55.59 56.03C55.58 56.06 55.57 56.09 55.57 56.12C55.54 56.18 55.68 56.21 55.71 56.22C55.72 56.22 55.73 56.22 55.74 56.24C55.75 56.26 55.73 56.28 55.72 56.29C55.69 56.32 55.64 56.35 55.62 56.39C55.55 56.54 55.77 56.58 55.87 56.59C56.05 56.62 56.25 56.59 56.4 56.48C56.54 56.38 56.61 56.21 56.66 56.06H56.65Z" fill="white"/>
<path d="M55.99 56.75C55.94 56.75 55.89 56.75 55.83 56.74C55.7 56.72 55.54 56.68 55.47 56.55C55.43 56.48 55.43 56.4 55.47 56.32C55.47 56.31 55.48 56.3 55.49 56.29C55.46 56.27 55.44 56.25 55.43 56.22C55.41 56.18 55.41 56.14 55.41 56.1C55.41 56.05 55.43 56.01 55.44 55.97C55.52 55.78 55.68 55.65 55.84 55.54C55.87 55.52 55.91 55.46 55.94 55.42C55.96 55.39 55.98 55.37 56 55.35L56.2 55.1C56.2 55.1 56.25 55.03 56.31 55.01C56.39 54.98 56.48 55.01 56.57 55.06C56.65 55.1 56.72 55.16 56.77 55.23C56.91 55.43 56.87 55.68 56.84 55.83C56.82 55.93 56.8 56.02 56.77 56.12C56.71 56.29 56.63 56.49 56.46 56.61C56.33 56.71 56.16 56.76 55.97 56.76L55.99 56.75ZM55.78 56.42C55.78 56.42 55.84 56.44 55.88 56.44C56.04 56.47 56.2 56.44 56.3 56.36C56.41 56.28 56.47 56.14 56.51 56.01C56.54 55.93 56.56 55.85 56.57 55.77C56.59 55.63 56.61 55.49 56.55 55.4C56.53 55.37 56.5 55.35 56.47 55.33L56.43 55.31L56.25 55.54C56.25 55.54 56.22 55.58 56.2 55.6C56.15 55.67 56.1 55.74 56.02 55.8C55.89 55.89 55.79 55.97 55.73 56.07H55.75C55.75 56.07 55.82 56.1 55.85 56.15C55.86 56.17 55.93 56.28 55.81 56.39C55.8 56.4 55.78 56.41 55.77 56.43L55.78 56.42Z" fill="#262028"/>
<path d="M57.01 55.53C56.85 55.76 56.57 55.93 56.34 55.78C56.16 55.66 56.15 55.43 56.24 55.24C56.81 53.91 57.22 52.53 57.22 51.08C57.22 50.53 57.08 49.25 57.92 49.24C58.59 49.24 58.65 50.24 58.63 50.72C58.56 52.44 57.96 54.12 57.01 55.54V55.53Z" fill="white"/>
<path d="M56.53 55.98C56.44 55.98 56.34 55.95 56.25 55.9C56.03 55.76 55.96 55.47 56.09 55.17C56.75 53.63 57.05 52.33 57.06 51.07C57.06 51.01 57.06 50.93 57.06 50.85C57.05 50.37 57.03 49.66 57.38 49.3C57.52 49.16 57.7 49.08 57.92 49.08C58.11 49.08 58.29 49.15 58.43 49.29C58.79 49.66 58.8 50.41 58.78 50.71C58.71 52.38 58.13 54.12 57.14 55.6C57 55.81 56.77 55.97 56.54 55.97L56.53 55.98ZM57.92 49.38C57.78 49.38 57.68 49.42 57.59 49.51C57.33 49.78 57.35 50.42 57.36 50.85C57.36 50.93 57.36 51.01 57.36 51.07C57.36 52.37 57.04 53.71 56.37 55.28C56.35 55.32 56.27 55.54 56.42 55.64C56.59 55.75 56.79 55.58 56.89 55.44C57.85 54 58.42 52.32 58.48 50.7C58.5 50.27 58.44 49.73 58.21 49.5C58.13 49.42 58.04 49.38 57.92 49.38Z" fill="#262028"/>
<path d="M11.63 54.91C11.91 54.64 12.32 54.64 12.67 54.58C12.82 54.55 12.97 54.53 13.12 54.51C13.18 54.51 13.25 54.5 13.31 54.52C13.46 54.58 13.49 54.87 13.45 55.01C13.42 55.11 13.34 55.18 13.25 55.23C13.12 55.3 12.95 55.35 12.8 55.35C12.64 55.35 12.49 55.37 12.35 55.45C12.17 55.55 12.03 55.67 11.81 55.65C11.52 55.62 11.36 55.26 11.56 55C11.58 54.97 11.61 54.94 11.64 54.91H11.63Z" fill="#262028"/>
<path d="M13.98 55.1C14.02 55.03 14.07 54.96 14.14 54.93C14.26 54.87 14.39 54.87 14.52 54.88C14.64 54.88 14.77 54.88 14.88 54.9C14.98 54.92 15.06 54.95 15.17 54.94C15.32 54.92 15.47 54.89 15.63 54.88C15.71 54.88 15.79 54.88 15.86 54.9C16.03 54.97 16.08 55.25 16.02 55.4C15.98 55.5 15.89 55.56 15.8 55.61C15.66 55.68 15.48 55.71 15.32 55.7C15.15 55.69 15 55.7 14.84 55.77C14.58 55.89 14.28 56.07 14.01 55.82C13.94 55.76 13.91 55.66 13.9 55.56C13.89 55.42 13.9 55.23 13.97 55.08L13.98 55.1Z" fill="#262028"/>
<path d="M11.39 45.61C11.43 45.4 13.52 45.31 13.96 45.35C14.45 45.4 14.59 44.52 14.72 45.04C14.89 45.76 14.99 47.75 14.98 48.49C14.98 49.47 14.96 50.44 14.95 51.42C14.95 52.52 14.93 53.27 14.92 54.37C14.92 54.67 14.9 55.01 14.68 55.2C14.51 55.34 14.16 55.31 14 55.12C13.82 54.9 13.03 48.07 13.03 48.07H12.89C12.89 48.07 12.54 54.82 12.45 54.97C12.25 55.31 11.65 55.37 11.53 55.03C11.39 54.61 11.3 46.04 11.39 45.62V45.61Z" fill="#3A2C99"/>
<path d="M14.4 55.43C14.4 55.43 14.35 55.43 14.33 55.43C14.15 55.41 13.98 55.33 13.88 55.21C13.72 55.01 13.29 51.56 12.98 49C12.77 52.9 12.63 54.93 12.57 55.05C12.43 55.29 12.12 55.44 11.83 55.41C11.61 55.39 11.45 55.27 11.38 55.08C11.21 54.57 11.16 45.97 11.23 45.59C11.32 45.16 13.93 45.21 13.96 45.22C14.11 45.23 14.22 45.1 14.34 44.94C14.43 44.82 14.51 44.71 14.65 44.74C14.79 44.77 14.83 44.94 14.85 45.02C15.04 45.79 15.12 47.83 15.12 48.5L15.07 54.38C15.07 54.62 15.07 55.08 14.77 55.32C14.68 55.4 14.54 55.44 14.4 55.44V55.43ZM12.89 47.91H13.03C13.1 47.91 13.17 47.97 13.17 48.05C13.47 50.6 13.98 54.75 14.12 55.04C14.16 55.09 14.25 55.13 14.35 55.14C14.44 55.14 14.53 55.13 14.58 55.09C14.74 54.95 14.77 54.67 14.77 54.38L14.82 48.5C14.82 47.82 14.74 45.88 14.57 45.13C14.45 45.29 14.25 45.54 13.93 45.51C13.46 45.46 11.8 45.56 11.52 45.69C11.43 46.49 11.55 54.61 11.66 54.98C11.69 55.07 11.78 55.1 11.85 55.11C12 55.13 12.2 55.06 12.29 54.91C12.36 54.57 12.58 50.65 12.72 48.06C12.72 47.98 12.79 47.92 12.87 47.92L12.89 47.91Z" fill="#262028"/>
<path d="M11.05 40.92C11.07 42.2 11.47 43.47 11.33 44.75C11.26 45.4 11.08 46.19 11.74 46.59C12.01 46.75 12.33 46.81 12.65 46.86C13.03 46.92 13.42 46.97 13.81 46.93C14.1 46.9 14.63 46.83 14.78 46.54C14.88 46.35 14.88 46.01 14.9 45.8C14.92 45.56 14.84 41.48 14.72 41.15C14.44 40.4 13.48 39.97 12.78 39.73C12.31 39.58 11.85 39.47 11.44 39.83C11.13 40.1 11.04 40.52 11.05 40.92Z" fill="white"/>
<path d="M13.54 47.09C13.23 47.09 12.92 47.05 12.64 47C12.3 46.95 11.97 46.88 11.68 46.71C11.01 46.31 11.1 45.55 11.17 44.94C11.17 44.87 11.19 44.8 11.19 44.73C11.26 44 11.16 43.26 11.06 42.54C10.99 42.01 10.91 41.47 10.9 40.92C10.9 40.39 11.04 39.99 11.34 39.72C11.81 39.3 12.35 39.43 12.82 39.59C13.93 39.95 14.62 40.46 14.86 41.09C15.01 41.49 15.05 45.77 15.05 45.8C15.05 45.84 15.05 45.88 15.05 45.93C15.04 46.15 15.03 46.42 14.92 46.61C14.74 46.94 14.24 47.03 13.83 47.08C13.73 47.09 13.63 47.09 13.53 47.09H13.54ZM11.21 40.92C11.21 41.44 11.29 41.98 11.36 42.5C11.46 43.24 11.57 44 11.49 44.76C11.49 44.83 11.47 44.9 11.47 44.98C11.4 45.56 11.33 46.15 11.84 46.46C12.09 46.61 12.39 46.67 12.7 46.71C13.06 46.77 13.44 46.82 13.82 46.78C14 46.76 14.55 46.71 14.68 46.47C14.75 46.34 14.76 46.11 14.77 45.92C14.77 45.87 14.77 45.83 14.77 45.79C14.79 45.55 14.71 41.5 14.6 41.2C14.35 40.52 13.45 40.1 12.75 39.87C12.22 39.7 11.88 39.66 11.56 39.94C11.33 40.15 11.21 40.47 11.22 40.91L11.21 40.92Z" fill="#262028"/>
<path d="M11.76 38C11.79 37.57 11.97 37.13 12.33 36.89C12.71 36.64 13.38 36.6 13.77 36.84C13.91 36.93 13.97 37.22 14.02 37.37C14.12 37.63 14.18 37.9 14.2 38.18C14.22 38.49 14.2 38.8 14.12 39.1C14.08 39.27 14.01 39.44 13.86 39.53C13.76 39.59 13.63 39.59 13.51 39.58C13.51 40.01 13.49 40.07 13.47 40.14C13.34 40.5 12.2 40.35 12.2 39.92C12.2 39.75 12.22 39.62 12.25 39.14C12.11 39.04 11.99 38.93 11.91 38.79C11.77 38.56 11.73 38.27 11.75 38H11.76Z" fill="white"/>
<path d="M12.99 40.49C12.9 40.49 12.82 40.49 12.73 40.47C12.31 40.4 12.05 40.19 12.06 39.92C12.06 39.8 12.06 39.69 12.08 39.46L12.1 39.21C11.97 39.11 11.86 38.99 11.78 38.86C11.64 38.62 11.58 38.32 11.6 37.98C11.64 37.45 11.87 37.01 12.24 36.76C12.68 36.46 13.41 36.44 13.85 36.71C14.01 36.81 14.07 37.03 14.13 37.2C14.14 37.24 14.15 37.28 14.17 37.31C14.27 37.58 14.33 37.87 14.36 38.16C14.38 38.49 14.36 38.81 14.28 39.12C14.24 39.29 14.16 39.52 13.95 39.64C13.86 39.69 13.77 39.71 13.68 39.71C13.68 40.01 13.66 40.09 13.63 40.17C13.55 40.39 13.29 40.47 13.01 40.47L12.99 40.49ZM11.9 38C11.88 38.2 11.9 38.48 12.03 38.71C12.1 38.82 12.2 38.93 12.33 39.02C12.37 39.05 12.4 39.1 12.39 39.15L12.37 39.48C12.35 39.7 12.35 39.8 12.35 39.92C12.35 40.02 12.53 40.13 12.78 40.17C13.08 40.22 13.3 40.15 13.33 40.08C13.35 40.02 13.37 39.97 13.36 39.57C13.36 39.53 13.38 39.49 13.41 39.46C13.44 39.43 13.48 39.42 13.52 39.42C13.61 39.42 13.71 39.42 13.78 39.39C13.86 39.34 13.92 39.24 13.97 39.06C14.04 38.78 14.07 38.49 14.04 38.19C14.02 37.93 13.96 37.67 13.87 37.42C13.86 37.38 13.84 37.34 13.83 37.29C13.8 37.19 13.74 37 13.68 36.96C13.35 36.75 12.73 36.77 12.4 37C12.12 37.19 11.93 37.56 11.89 38H11.9Z" fill="#262028"/>
<path d="M13.84 37.21C13.84 37.21 13.89 37.16 13.92 37.14C14 37.08 14.09 37.01 14.11 36.91C14.13 36.82 14.09 36.73 14.03 36.67C13.97 36.6 13.89 36.56 13.81 36.52C13.6 36.41 13.39 36.33 13.16 36.29C12.62 36.2 12.03 36.42 11.68 36.84H11.67C10.99 37.7 11.34 39.22 12.5 39.39C12.64 39.41 12.78 39.41 12.9 39.34C13.03 39.27 13.12 39.14 13.15 39C13.2 38.82 13.13 38.7 13.09 38.53C13.07 38.43 13.07 38.31 13.15 38.25C13.37 38.07 13.46 38.46 13.64 38.45C13.7 38.45 13.74 38.39 13.75 38.34C13.76 38.29 13.75 38.23 13.75 38.17C13.72 38.01 13.71 37.85 13.67 37.7C13.64 37.57 13.65 37.51 13.71 37.38C13.75 37.31 13.78 37.26 13.83 37.22L13.84 37.21Z" fill="#262028"/>
<path d="M12.65 39.55C12.6 39.55 12.54 39.55 12.48 39.54C11.94 39.46 11.51 39.11 11.3 38.57C11.06 37.96 11.16 37.25 11.55 36.76C11.95 36.28 12.58 36.04 13.18 36.14C13.4 36.18 13.62 36.25 13.88 36.39C13.97 36.43 14.06 36.49 14.14 36.57C14.24 36.68 14.28 36.82 14.26 36.94C14.23 37.09 14.11 37.18 14.03 37.25C13.99 37.28 13.97 37.3 13.95 37.32C13.95 37.32 13.89 37.39 13.86 37.45C13.81 37.55 13.81 37.57 13.83 37.67C13.85 37.78 13.87 37.89 13.89 38C13.89 38.05 13.91 38.1 13.91 38.15C13.92 38.21 13.93 38.29 13.91 38.38C13.88 38.5 13.78 38.59 13.66 38.6C13.51 38.6 13.42 38.51 13.35 38.43C13.33 38.41 13.29 38.37 13.27 38.36H13.25C13.25 38.36 13.22 38.45 13.24 38.51C13.24 38.55 13.26 38.59 13.27 38.62C13.31 38.74 13.35 38.88 13.3 39.06C13.25 39.25 13.13 39.41 12.97 39.49C12.88 39.54 12.77 39.56 12.64 39.56L12.65 39.55ZM12.91 36.41C12.49 36.41 12.07 36.6 11.8 36.93C11.47 37.34 11.39 37.95 11.58 38.45C11.75 38.88 12.09 39.17 12.52 39.23C12.65 39.25 12.76 39.23 12.83 39.2C12.91 39.16 12.98 39.07 13.01 38.96C13.04 38.87 13.01 38.8 12.98 38.69C12.97 38.65 12.95 38.61 12.94 38.56C12.9 38.38 12.94 38.22 13.05 38.13C13.29 37.93 13.47 38.13 13.55 38.22C13.56 38.24 13.59 38.26 13.6 38.27C13.6 38.24 13.6 38.21 13.6 38.18C13.6 38.13 13.58 38.07 13.58 38.02C13.56 37.92 13.55 37.81 13.53 37.71C13.49 37.55 13.51 37.45 13.59 37.29C13.63 37.21 13.68 37.14 13.73 37.09C13.76 37.06 13.79 37.03 13.83 37.01C13.9 36.96 13.96 36.91 13.97 36.87C13.97 36.84 13.96 36.79 13.93 36.76C13.89 36.71 13.82 36.68 13.75 36.64C13.52 36.52 13.33 36.45 13.14 36.42C13.06 36.41 12.99 36.4 12.91 36.4V36.41Z" fill="#262028"/>
<path d="M12.59 36.41C12.59 36.41 12.62 36.45 12.63 36.48C12.65 36.53 12.67 36.58 12.71 36.61C12.75 36.64 12.79 36.64 12.8 36.7C12.82 36.77 12.83 36.83 12.89 36.89C12.93 36.92 13 36.94 12.99 37.01C12.98 37.09 12.89 37.09 12.84 37.15C12.8 37.2 12.77 37.26 12.7 37.25C12.62 37.24 12.54 37.24 12.47 37.22C12.39 37.2 12.32 37.17 12.25 37.16C12.12 37.14 11.86 37.14 11.8 37.31C11.89 37.36 11.99 37.37 12.1 37.38C12.19 37.39 12.28 37.41 12.33 37.5C12.35 37.54 12.39 37.6 12.36 37.65C12.31 37.73 12.19 37.69 12.11 37.68C11.91 37.66 11.67 37.68 11.49 37.57C11.47 37.56 11.44 37.54 11.42 37.52C11.35 37.47 11.28 37.45 11.2 37.41C11.13 37.37 11.04 37.34 10.96 37.32C10.92 37.32 10.88 37.31 10.84 37.29C10.7 37.23 10.68 37.04 10.7 36.9C10.71 36.79 10.77 36.69 10.85 36.63C10.94 36.57 11.04 36.59 11.14 36.56C11.24 36.53 11.34 36.52 11.43 36.48C11.52 36.44 11.6 36.4 11.69 36.37C11.83 36.31 11.98 36.29 12.12 36.29C12.2 36.29 12.27 36.29 12.34 36.31C12.45 36.33 12.51 36.34 12.56 36.41H12.59Z" fill="white"/>
<path d="M12.26 37.85C12.26 37.85 12.18 37.85 12.15 37.84C12.14 37.84 12.12 37.84 12.11 37.84C12.07 37.84 12.03 37.84 11.99 37.84C11.81 37.84 11.6 37.82 11.42 37.72C11.4 37.71 11.38 37.7 11.37 37.69L11.35 37.67C11.35 37.67 11.28 37.63 11.24 37.61C11.21 37.59 11.17 37.58 11.14 37.56C11.09 37.53 11.02 37.51 10.95 37.49C10.89 37.48 10.84 37.47 10.8 37.45C10.59 37.36 10.55 37.11 10.57 36.91C10.59 36.75 10.67 36.61 10.79 36.54C10.88 36.48 10.97 36.47 11.04 36.47C11.07 36.47 11.1 36.47 11.12 36.46C11.15 36.46 11.19 36.44 11.22 36.44C11.28 36.43 11.34 36.41 11.39 36.39C11.48 36.35 11.57 36.31 11.66 36.28C11.82 36.22 11.98 36.18 12.15 36.19C12.25 36.19 12.33 36.19 12.4 36.21C12.52 36.23 12.63 36.25 12.71 36.36C12.73 36.39 12.75 36.42 12.77 36.46C12.78 36.48 12.8 36.52 12.81 36.53C12.86 36.56 12.93 36.59 12.95 36.69V36.74C12.98 36.79 12.98 36.8 12.99 36.81H13.01C13.01 36.81 13.17 36.92 13.15 37.06C13.13 37.18 13.04 37.23 12.99 37.26C12.99 37.26 12.97 37.27 12.96 37.28L12.94 37.3C12.94 37.3 12.83 37.44 12.69 37.42C12.66 37.42 12.64 37.42 12.61 37.42C12.56 37.42 12.5 37.41 12.45 37.4C12.43 37.4 12.41 37.4 12.39 37.39C12.41 37.41 12.44 37.44 12.46 37.48C12.5 37.54 12.56 37.66 12.49 37.78C12.43 37.88 12.34 37.9 12.26 37.9V37.85ZM12.14 36.45C12.02 36.45 11.89 36.48 11.77 36.52C11.68 36.55 11.6 36.59 11.52 36.63C11.44 36.67 11.36 36.68 11.29 36.7C11.26 36.7 11.23 36.71 11.2 36.72C11.15 36.73 11.11 36.74 11.06 36.74C11.01 36.74 10.97 36.74 10.95 36.77C10.9 36.8 10.87 36.86 10.86 36.93C10.85 37.03 10.86 37.14 10.92 37.16C10.94 37.16 10.96 37.17 10.99 37.18H11.01C11.12 37.21 11.21 37.24 11.29 37.29C11.32 37.31 11.34 37.32 11.37 37.33C11.42 37.35 11.47 37.38 11.51 37.41L11.54 37.43C11.54 37.43 11.56 37.45 11.58 37.45C11.69 37.52 11.85 37.52 12.01 37.53C12.05 37.53 12.1 37.53 12.14 37.53H12.16C12.16 37.53 12.12 37.53 12.1 37.53H12.05C11.95 37.51 11.84 37.5 11.74 37.43C11.68 37.39 11.65 37.32 11.68 37.25C11.78 36.98 12.11 36.97 12.3 37C12.35 37 12.39 37.02 12.44 37.03C12.47 37.03 12.5 37.05 12.53 37.05C12.57 37.05 12.62 37.06 12.66 37.07H12.73C12.73 37.07 12.75 37.04 12.76 37.03C12.78 37.01 12.79 37 12.81 36.98C12.73 36.91 12.7 36.82 12.69 36.76V36.74C12.69 36.74 12.65 36.72 12.64 36.71C12.57 36.66 12.54 36.58 12.51 36.53C12.51 36.51 12.49 36.49 12.48 36.48C12.48 36.48 12.46 36.46 12.36 36.44C12.3 36.43 12.24 36.43 12.16 36.43L12.14 36.45Z" fill="#262028"/>
<path d="M9.75001 39.76C10.1 40.16 10.68 40.74 11.06 41.18C11.06 41.09 11.06 41.01 11.06 40.92C11.06 40.53 11.14 40.11 11.45 39.83C11.53 39.76 11.62 39.7 11.71 39.66C11.15 39.24 10.01 38.48 10 38.09C10 37.68 10.68 37.52 10.92 37.43C11.33 37.27 11.28 36.54 10.72 36.59C9.46001 36.69 8.92002 37.44 8.89002 37.77C8.81002 38.58 9.21002 39.12 9.76002 39.75L9.75001 39.76Z" fill="white"/>
<path d="M11.06 41.33C11.06 41.33 10.98 41.31 10.95 41.28C10.75 41.04 10.49 40.77 10.23 40.5C10.01 40.26 9.8 40.04 9.63 39.86C9.06 39.21 8.64001 38.65 8.73001 37.77C8.77001 37.4 9.31001 36.56 10.7 36.45C11.01 36.42 11.25 36.6 11.32 36.88C11.39 37.18 11.24 37.48 10.97 37.58C10.93 37.59 10.88 37.61 10.83 37.63C10.59 37.71 10.14 37.86 10.14 38.1C10.14 38.36 11.08 39.03 11.52 39.36C11.62 39.43 11.71 39.5 11.79 39.55C11.83 39.58 11.86 39.63 11.85 39.69C11.85 39.74 11.81 39.79 11.76 39.81C11.69 39.84 11.61 39.89 11.54 39.95C11.31 40.16 11.19 40.48 11.2 40.92C11.2 41.01 11.2 41.09 11.2 41.18C11.2 41.24 11.17 41.3 11.11 41.33C11.09 41.33 11.07 41.34 11.05 41.34L11.06 41.33ZM9.85998 39.66C10.02 39.84 10.23 40.06 10.45 40.3C10.6 40.46 10.76 40.63 10.91 40.79C10.93 40.33 11.07 39.97 11.35 39.73C11.38 39.71 11.41 39.68 11.44 39.66L11.36 39.6C10.51 38.99 9.86 38.49 9.85 38.11C9.85 37.65 10.4 37.47 10.74 37.35C10.79 37.33 10.83 37.32 10.87 37.31C11.02 37.25 11.07 37.08 11.04 36.95C11.02 36.87 10.96 36.73 10.74 36.75C9.52999 36.84 9.07 37.56 9.04 37.8C8.96 38.56 9.33999 39.05 9.86999 39.66H9.85998Z" fill="#262028"/>
<path d="M15.54 47.42C15.51 47.33 15.49 47.24 15.47 47.15C15.44 46.99 15.42 46.8 15.52 46.66C15.56 46.61 15.61 46.57 15.66 46.54C15.69 46.52 15.78 46.48 15.81 46.49C15.83 46.49 15.85 46.52 15.86 46.53L16.07 46.79C16.13 46.86 16.19 46.97 16.27 47.02C16.41 47.11 16.56 47.22 16.63 47.39C16.64 47.42 16.65 47.45 16.65 47.48C16.68 47.54 16.54 47.57 16.51 47.58C16.5 47.58 16.49 47.58 16.48 47.6C16.47 47.62 16.49 47.64 16.5 47.65C16.53 47.68 16.58 47.71 16.6 47.75C16.67 47.9 16.45 47.94 16.35 47.96C16.17 47.99 15.96 47.96 15.81 47.85C15.67 47.75 15.6 47.58 15.54 47.42Z" fill="white"/>
<path d="M16.2 48.11C16.02 48.11 15.84 48.06 15.71 47.96C15.54 47.83 15.45 47.64 15.39 47.46C15.36 47.36 15.33 47.27 15.31 47.17C15.28 47.02 15.24 46.77 15.38 46.57C15.43 46.5 15.5 46.44 15.58 46.4C15.67 46.36 15.76 46.32 15.85 46.35C15.91 46.37 15.95 46.42 15.96 46.44L16.17 46.7C16.17 46.7 16.21 46.75 16.23 46.78C16.27 46.83 16.3 46.88 16.34 46.9C16.5 47.01 16.67 47.14 16.75 47.33C16.76 47.36 16.78 47.41 16.78 47.46C16.78 47.5 16.78 47.54 16.77 47.58C16.75 47.61 16.73 47.64 16.7 47.66C16.7 47.67 16.71 47.68 16.72 47.7C16.76 47.78 16.76 47.86 16.72 47.93C16.65 48.06 16.49 48.1 16.36 48.12C16.3 48.12 16.25 48.13 16.2 48.13V48.11ZM15.76 46.65L15.72 46.67C15.72 46.67 15.65 46.71 15.63 46.74C15.57 46.83 15.58 46.98 15.61 47.12C15.62 47.2 15.65 47.29 15.67 47.37C15.72 47.5 15.78 47.65 15.89 47.73C16 47.81 16.15 47.84 16.32 47.81C16.37 47.81 16.41 47.79 16.43 47.79C16.42 47.78 16.4 47.77 16.39 47.75C16.27 47.64 16.34 47.53 16.35 47.51C16.38 47.46 16.44 47.44 16.45 47.44H16.47C16.41 47.32 16.29 47.23 16.18 47.15C16.1 47.1 16.05 47.02 16 46.95C15.98 46.93 15.97 46.91 15.95 46.89L15.76 46.66V46.65Z" fill="#262028"/>
<path d="M15.17 46.88C15.33 47.12 15.62 47.28 15.86 47.13C16.04 47.01 16.05 46.78 15.96 46.58C15.38 45.23 14.96 43.83 14.95 42.36C14.95 41.8 15.09 40.5 14.23 40.49C13.55 40.49 13.49 41.51 13.51 41.99C13.59 43.73 14.21 45.44 15.17 46.88Z" fill="white"/>
<path d="M15.66 47.34C15.42 47.34 15.19 47.18 15.05 46.96C14.04 45.46 13.44 43.7 13.36 42C13.35 41.69 13.36 40.93 13.71 40.56C13.85 40.42 14.02 40.34 14.23 40.34C14.45 40.34 14.63 40.42 14.77 40.56C15.12 40.92 15.11 41.65 15.1 42.14C15.1 42.22 15.1 42.3 15.1 42.36C15.1 43.64 15.42 44.96 16.1 46.52C16.23 46.82 16.17 47.11 15.94 47.26C15.85 47.32 15.75 47.34 15.66 47.34ZM14.23 40.64C14.11 40.64 14.01 40.68 13.93 40.76C13.7 41 13.64 41.55 13.66 41.98C13.73 43.63 14.31 45.34 15.3 46.79C15.4 46.94 15.61 47.11 15.78 47C15.93 46.9 15.85 46.68 15.83 46.63C15.14 45.03 14.82 43.67 14.81 42.35C14.81 42.28 14.81 42.21 14.81 42.12C14.81 41.69 14.83 41.03 14.57 40.76C14.49 40.67 14.38 40.63 14.24 40.63L14.23 40.64Z" fill="#262028"/>
<path d="M26.13 54.02L26.12 55.17L26.11 55.94L26.12 54.79L26.13 54.02Z" fill="#262028"/>
<path d="M26.11 56.09C26.03 56.09 25.96 56.02 25.96 55.94V54.01C25.97 53.93 26.04 53.86 26.12 53.86C26.2 53.86 26.27 53.93 26.27 54.01V55.94C26.26 56.02 26.19 56.09 26.11 56.09Z" fill="#262028"/>
<path d="M20.86 55.94V57.09L20 56.59V55.43L20.86 55.94Z" fill="#262028"/>
<path d="M20.86 57.24C20.86 57.24 20.81 57.24 20.78 57.22L19.92 56.72C19.92 56.72 19.85 56.64 19.85 56.59V55.44C19.85 55.39 19.88 55.34 19.93 55.31C19.98 55.28 20.03 55.28 20.08 55.31L20.94 55.81C20.94 55.81 21.01 55.89 21.01 55.94V57.09C21.01 57.14 20.98 57.19 20.93 57.22C20.91 57.23 20.88 57.24 20.86 57.24ZM20.15 56.5L20.71 56.83V56.02L20.15 55.69V56.5Z" fill="#262028"/>
<path d="M29.66 55.51L29.65 56.67L28.71 57.21V56.05L29.66 55.51Z" fill="#262028"/>
<path d="M28.71 57.35C28.71 57.35 28.66 57.35 28.64 57.33C28.59 57.3 28.57 57.25 28.57 57.2V56.05C28.57 56 28.6 55.95 28.65 55.92L29.6 55.38C29.6 55.38 29.7 55.35 29.75 55.38C29.8 55.41 29.82 55.46 29.82 55.51V56.66C29.82 56.71 29.79 56.76 29.74 56.79L28.79 57.33C28.79 57.33 28.74 57.35 28.72 57.35H28.71ZM28.86 56.13V56.94L29.51 56.57V55.76L28.86 56.13Z" fill="#262028"/>
<path d="M26.93 57.26V58.41C26.93 58.08 26.71 57.76 26.28 57.51C25.42 57.01 24.02 57.01 23.15 57.51C22.72 57.76 22.5 58.09 22.5 58.42V57.27C22.5 56.94 22.72 56.62 23.15 56.36C24.02 55.86 25.42 55.86 26.28 56.36C26.71 56.61 26.93 56.93 26.92 57.26H26.93Z" fill="#262028"/>
<path d="M22.5 58.57C22.42 58.57 22.35 58.5 22.35 58.42V57.27C22.35 56.87 22.61 56.51 23.08 56.24C23.99 55.72 25.46 55.72 26.36 56.24C26.82 56.51 27.08 56.87 27.08 57.27V58.42C27.08 58.5 27.01 58.57 26.93 58.57C26.85 58.57 26.78 58.5 26.78 58.42C26.78 58.13 26.58 57.86 26.21 57.65C25.39 57.18 24.05 57.18 23.23 57.65C22.86 57.86 22.65 58.14 22.65 58.43C22.65 58.51 22.58 58.58 22.5 58.58V58.57ZM24.73 56.13C24.19 56.13 23.65 56.25 23.23 56.49C22.86 56.7 22.65 56.98 22.65 57.27V57.72C22.76 57.6 22.9 57.49 23.07 57.39C23.98 56.87 25.45 56.87 26.35 57.39C26.52 57.49 26.66 57.6 26.77 57.72V57.27C26.77 56.98 26.57 56.71 26.2 56.5C25.79 56.26 25.25 56.15 24.72 56.15L24.73 56.13Z" fill="#262028"/>
<path d="M26.93 57.26V58.41C26.93 58.08 26.71 57.76 26.28 57.51C25.42 57.01 24.02 57.01 23.15 57.51C22.72 57.76 22.5 58.09 22.5 58.42V57.27C22.5 56.94 22.72 56.62 23.15 56.36C24.02 55.86 25.42 55.86 26.28 56.36C26.71 56.61 26.93 56.93 26.92 57.26H26.93Z" fill="#262028"/>
<path d="M22.5 58.57C22.42 58.57 22.35 58.5 22.35 58.42V57.27C22.35 56.87 22.61 56.51 23.08 56.24C23.99 55.72 25.46 55.72 26.36 56.24C26.82 56.51 27.08 56.87 27.08 57.27V58.42C27.08 58.5 27.01 58.57 26.93 58.57C26.85 58.57 26.78 58.5 26.78 58.42C26.78 58.13 26.58 57.86 26.21 57.65C25.39 57.18 24.05 57.18 23.23 57.65C22.86 57.86 22.65 58.14 22.65 58.43C22.65 58.51 22.58 58.58 22.5 58.58V58.57ZM24.73 56.13C24.19 56.13 23.65 56.25 23.23 56.49C22.86 56.7 22.65 56.98 22.65 57.27V57.72C22.76 57.6 22.9 57.49 23.07 57.39C23.98 56.87 25.45 56.87 26.35 57.39C26.52 57.49 26.66 57.6 26.77 57.72V57.27C26.77 56.98 26.57 56.71 26.2 56.5C25.79 56.26 25.25 56.15 24.72 56.15L24.73 56.13Z" fill="#262028"/>
<path d="M20.36 57.91V59.07H19.18V57.91H20.36Z" fill="#262028"/>
<path d="M20.36 59.22H19.18C19.18 59.22 19.1 59.2 19.07 59.17C19.04 59.14 19.03 59.1 19.03 59.06V57.91C19.03 57.83 19.1 57.76 19.18 57.76H20.36C20.36 57.76 20.44 57.78 20.47 57.81C20.5 57.84 20.51 57.88 20.51 57.92V59.07C20.51 59.15 20.44 59.22 20.36 59.22ZM19.33 58.92H20.21V58.07H19.33V58.92Z" fill="#262028"/>
<path d="M30.31 58.02V59.17L29.02 59.16V58.01L30.31 58.02Z" fill="#262028"/>
<path d="M30.31 59.32H29.02C28.94 59.32 28.87 59.25 28.87 59.17V58.02C28.87 58.02 28.89 57.94 28.92 57.91C28.95 57.88 28.99 57.87 29.02 57.87H30.31C30.39 57.87 30.46 57.94 30.46 58.02V59.17C30.46 59.17 30.44 59.25 30.41 59.28C30.38 59.31 30.34 59.32 30.31 59.32ZM29.17 59.02H30.16V58.17H29.17V59.02Z" fill="#262028"/>
<path d="M30.34 56.56L30.33 57.72L30.31 59.17V58.02L30.34 56.56Z" fill="#262028"/>
<path d="M30.31 59.32C30.23 59.32 30.16 59.25 30.16 59.17V58.02L30.19 56.57C30.19 56.49 30.26 56.42 30.34 56.42C30.42 56.42 30.49 56.49 30.49 56.57V57.72L30.46 59.17C30.46 59.25 30.39 59.32 30.31 59.32Z" fill="#262028"/>
<path d="M20.73 58.47V59.62C20.56 59.44 20.44 59.26 20.36 59.06V57.91C20.45 58.1 20.57 58.29 20.73 58.47Z" fill="#262028"/>
<path d="M20.73 59.77C20.73 59.77 20.65 59.75 20.62 59.72C20.45 59.54 20.32 59.34 20.23 59.12C20.23 59.1 20.22 59.08 20.22 59.06V57.91C20.22 57.84 20.27 57.78 20.34 57.76C20.41 57.74 20.48 57.78 20.51 57.85C20.59 58.03 20.71 58.2 20.85 58.37C20.88 58.4 20.89 58.43 20.89 58.47V59.62C20.89 59.68 20.85 59.74 20.79 59.76C20.77 59.76 20.75 59.77 20.74 59.77H20.73ZM20.51 59.03C20.51 59.03 20.56 59.12 20.58 59.17V58.52C20.58 58.52 20.53 58.46 20.51 58.43V59.03Z" fill="#262028"/>
<path d="M20.73 58.47V59.62C20.56 59.44 20.44 59.26 20.36 59.06V57.91C20.45 58.1 20.57 58.29 20.73 58.47Z" fill="#262028"/>
<path d="M20.73 59.77C20.73 59.77 20.65 59.75 20.62 59.72C20.45 59.54 20.32 59.34 20.23 59.12C20.23 59.1 20.22 59.08 20.22 59.06V57.91C20.22 57.84 20.27 57.78 20.34 57.76C20.41 57.74 20.48 57.78 20.51 57.85C20.59 58.03 20.71 58.2 20.85 58.37C20.88 58.4 20.89 58.43 20.89 58.47V59.62C20.89 59.68 20.85 59.74 20.79 59.76C20.77 59.76 20.75 59.77 20.74 59.77H20.73ZM20.51 59.03C20.51 59.03 20.56 59.12 20.58 59.17V58.52C20.58 58.52 20.53 58.46 20.51 58.43V59.03Z" fill="#262028"/>
<path d="M29.02 58.01V59.16C28.93 59.33 28.8 59.5 28.65 59.66V58.51C28.81 58.35 28.93 58.18 29.02 58.01Z" fill="#262028"/>
<path d="M28.65 59.81C28.65 59.81 28.61 59.81 28.59 59.8C28.53 59.78 28.5 59.72 28.5 59.66V58.51C28.5 58.51 28.52 58.44 28.54 58.41C28.68 58.26 28.8 58.11 28.88 57.95C28.91 57.89 28.98 57.86 29.05 57.87C29.12 57.89 29.16 57.95 29.16 58.02V59.17C29.16 59.17 29.16 59.22 29.14 59.24C29.04 59.42 28.91 59.6 28.75 59.77C28.72 59.8 28.68 59.82 28.64 59.82L28.65 59.81ZM28.8 58.57V59.24C28.8 59.24 28.84 59.17 28.86 59.13V58.5C28.86 58.5 28.82 58.55 28.8 58.57Z" fill="#262028"/>
<path d="M29.02 58.01V59.16C28.93 59.33 28.8 59.5 28.65 59.66V58.51C28.81 58.35 28.93 58.18 29.02 58.01Z" fill="#262028"/>
<path d="M28.65 59.81C28.65 59.81 28.61 59.81 28.59 59.8C28.53 59.78 28.5 59.72 28.5 59.66V58.51C28.5 58.51 28.52 58.44 28.54 58.41C28.68 58.26 28.8 58.11 28.88 57.95C28.91 57.89 28.98 57.86 29.05 57.87C29.12 57.89 29.16 57.95 29.16 58.02V59.17C29.16 59.17 29.16 59.22 29.14 59.24C29.04 59.42 28.91 59.6 28.75 59.77C28.72 59.8 28.68 59.82 28.64 59.82L28.65 59.81ZM28.8 58.57V59.24C28.8 59.24 28.84 59.17 28.86 59.13V58.5C28.86 58.5 28.82 58.55 28.8 58.57Z" fill="#262028"/>
<path d="M23.42 59.75V60.9C23.09 60.84 22.77 60.77 22.46 60.66V59.51C22.77 59.61 23.09 59.69 23.42 59.75Z" fill="#262028"/>
<path d="M23.42 61.05H23.39C23.05 60.99 22.72 60.91 22.41 60.81C22.35 60.79 22.31 60.73 22.31 60.67V59.52C22.31 59.52 22.34 59.43 22.38 59.4C22.42 59.37 22.47 59.36 22.51 59.38C22.8 59.48 23.11 59.55 23.44 59.61C23.51 59.62 23.56 59.68 23.56 59.76V60.91C23.56 60.91 23.54 61 23.5 61.02C23.47 61.04 23.44 61.05 23.4 61.05H23.42ZM22.61 60.56C22.82 60.63 23.04 60.68 23.27 60.73V59.88C23.05 59.84 22.83 59.78 22.62 59.72V60.56H22.61Z" fill="#262028"/>
<path d="M23.42 59.75V60.9C23.09 60.84 22.77 60.77 22.46 60.66V59.51C22.77 59.61 23.09 59.69 23.42 59.75Z" fill="#262028"/>
<path d="M23.42 61.05H23.39C23.05 60.99 22.72 60.91 22.41 60.81C22.35 60.79 22.31 60.73 22.31 60.67V59.52C22.31 59.52 22.34 59.43 22.38 59.4C22.42 59.37 22.47 59.36 22.51 59.38C22.8 59.48 23.11 59.55 23.44 59.61C23.51 59.62 23.56 59.68 23.56 59.76V60.91C23.56 60.91 23.54 61 23.5 61.02C23.47 61.04 23.44 61.05 23.4 61.05H23.42ZM22.61 60.56C22.82 60.63 23.04 60.68 23.27 60.73V59.88C23.05 59.84 22.83 59.78 22.62 59.72V60.56H22.61Z" fill="#262028"/>
<path d="M26.88 59.53V60.68C26.58 60.78 26.26 60.85 25.93 60.9V59.75C26.26 59.7 26.58 59.62 26.88 59.53Z" fill="#262028"/>
<path d="M25.93 61.06C25.93 61.06 25.86 61.05 25.83 61.02C25.8 60.99 25.78 60.95 25.78 60.91V59.76C25.78 59.69 25.84 59.63 25.91 59.61C26.24 59.56 26.55 59.48 26.83 59.39C26.88 59.38 26.92 59.39 26.96 59.41C27 59.44 27.02 59.48 27.02 59.53V60.68C27.02 60.74 26.97 60.8 26.91 60.82C26.61 60.92 26.29 60.99 25.94 61.05H25.92L25.93 61.06ZM26.08 59.89V60.74C26.3 60.7 26.52 60.64 26.72 60.58V59.74C26.52 59.8 26.3 59.85 26.08 59.89Z" fill="#262028"/>
<path d="M26.88 59.53V60.68C26.58 60.78 26.26 60.85 25.93 60.9V59.75C26.26 59.7 26.58 59.62 26.88 59.53Z" fill="#262028"/>
<path d="M25.93 61.06C25.93 61.06 25.86 61.05 25.83 61.02C25.8 60.99 25.78 60.95 25.78 60.91V59.76C25.78 59.69 25.84 59.63 25.91 59.61C26.24 59.56 26.55 59.48 26.83 59.39C26.88 59.38 26.92 59.39 26.96 59.41C27 59.44 27.02 59.48 27.02 59.53V60.68C27.02 60.74 26.97 60.8 26.91 60.82C26.61 60.92 26.29 60.99 25.94 61.05H25.92L25.93 61.06ZM26.08 59.89V60.74C26.3 60.7 26.52 60.64 26.72 60.58V59.74C26.52 59.8 26.3 59.85 26.08 59.89Z" fill="#262028"/>
<path d="M21.64 59.99V61.14L19.87 60.12V58.96L21.64 59.99Z" fill="#262028"/>
<path d="M21.64 61.29C21.64 61.29 21.59 61.29 21.57 61.27L19.8 60.24C19.8 60.24 19.73 60.16 19.73 60.11V58.96C19.73 58.91 19.76 58.86 19.81 58.83C19.86 58.8 19.91 58.8 19.96 58.83L21.73 59.86C21.73 59.86 21.8 59.94 21.8 59.99V61.14C21.8 61.19 21.77 61.24 21.72 61.27C21.7 61.28 21.67 61.29 21.65 61.29H21.64ZM20.02 60.03L21.49 60.88V60.07L20.02 59.22V60.03Z" fill="#262028"/>
<path d="M22.47 59.51L22.46 60.67L21.64 61.14V59.99L22.47 59.51Z" fill="#262028"/>
<path d="M21.64 61.29C21.64 61.29 21.59 61.29 21.57 61.27C21.52 61.24 21.5 61.19 21.5 61.14V59.99C21.5 59.94 21.53 59.89 21.58 59.86L22.41 59.38C22.41 59.38 22.51 59.35 22.56 59.38C22.61 59.41 22.63 59.46 22.63 59.51V60.66C22.63 60.71 22.6 60.76 22.55 60.79L21.72 61.27C21.72 61.27 21.67 61.29 21.65 61.29H21.64ZM21.79 60.07V60.88L22.32 60.58V59.77L21.79 60.07Z" fill="#262028"/>
<path d="M29.53 59.01V60.16L27.75 61.19V60.04L29.53 59.01Z" fill="#262028"/>
<path d="M27.75 61.34C27.75 61.34 27.7 61.34 27.68 61.32C27.63 61.29 27.61 61.24 27.61 61.19V60.04C27.61 59.99 27.64 59.94 27.69 59.91L29.47 58.88C29.47 58.88 29.57 58.85 29.62 58.88C29.67 58.91 29.69 58.96 29.69 59.01V60.16C29.69 60.21 29.66 60.26 29.61 60.29L27.83 61.32C27.83 61.32 27.78 61.34 27.76 61.34H27.75ZM27.9 60.12V60.93L29.38 60.07V59.26L27.9 60.12Z" fill="#262028"/>
<path d="M27.75 60.04V61.19L26.87 60.69L26.88 59.53L27.75 60.04Z" fill="#262028"/>
<path d="M27.75 61.34C27.75 61.34 27.7 61.34 27.68 61.32L26.81 60.82C26.81 60.82 26.74 60.74 26.74 60.69V59.54C26.74 59.49 26.77 59.44 26.82 59.41C26.87 59.38 26.92 59.38 26.97 59.41L27.84 59.91C27.84 59.91 27.91 59.99 27.91 60.04V61.19C27.91 61.24 27.88 61.29 27.83 61.32C27.81 61.33 27.78 61.34 27.76 61.34H27.75ZM27.03 60.6L27.61 60.93V60.12L27.04 59.79V60.6H27.03Z" fill="#262028"/>
<path d="M25.93 61.75C25.85 61.75 25.78 61.68 25.78 61.6V59.76C25.78 59.68 25.85 59.61 25.94 59.61C26.02 59.61 26.09 59.68 26.09 59.76V61.6C26.09 61.68 26.02 61.75 25.93 61.75Z" fill="#262028"/>
<path d="M27.75 60.04L26.88 59.54C26.58 59.64 26.26 59.71 25.94 59.76V60.44H23.42V59.75C23.09 59.69 22.77 59.62 22.47 59.51L21.64 59.99L19.87 58.96L20.73 58.47C20.57 58.29 20.45 58.11 20.36 57.91H19.18L19.2 56.46H20.45C20.55 56.28 20.69 56.1 20.86 55.94L20 55.44L21.79 54.42L22.7 54.95C22.99 54.87 23.29 54.8 23.6 54.75V54.01H26.12V54.79C26.4 54.84 26.69 54.92 26.96 55.01L27.89 54.48L29.65 55.51L28.7 56.05C28.85 56.21 28.96 56.38 29.05 56.56H30.33L30.3 58.02H29.01C28.92 58.19 28.8 58.35 28.65 58.51L29.52 59.01L27.74 60.04H27.75ZM23.15 58.17C24.01 58.67 25.41 58.67 26.28 58.17C27.15 57.67 27.15 56.86 26.28 56.36C25.42 55.86 24.02 55.86 23.15 56.36C22.28 56.86 22.28 57.67 23.15 58.17Z" fill="white"/>
<path d="M23.42 60.59C23.42 60.59 23.34 60.57 23.31 60.55C23.28 60.52 23.27 60.48 23.27 60.44V59.87C23 59.82 22.73 59.75 22.49 59.67L21.72 60.11C21.72 60.11 21.62 60.14 21.57 60.11L19.8 59.08C19.8 59.08 19.73 59 19.73 58.95C19.73 58.9 19.76 58.85 19.8 58.82L20.5 58.42C20.41 58.3 20.33 58.18 20.27 58.05H19.18C19.18 58.05 19.1 58.03 19.07 58C19.04 57.97 19.03 57.93 19.03 57.89L19.05 56.44C19.05 56.36 19.12 56.29 19.2 56.29H20.37C20.44 56.17 20.53 56.06 20.63 55.95L19.93 55.54C19.93 55.54 19.86 55.46 19.86 55.41C19.86 55.36 19.89 55.31 19.93 55.28L21.72 54.26C21.72 54.26 21.82 54.23 21.87 54.26L22.73 54.76C22.96 54.69 23.21 54.64 23.46 54.6V53.99C23.47 53.91 23.54 53.84 23.62 53.84H26.13C26.13 53.84 26.21 53.86 26.24 53.89C26.27 53.92 26.28 53.96 26.28 54V54.65C26.51 54.7 26.74 54.76 26.96 54.83L27.83 54.33C27.83 54.33 27.93 54.3 27.98 54.33L29.74 55.36C29.74 55.36 29.81 55.44 29.81 55.49C29.81 55.54 29.78 55.59 29.73 55.62L28.94 56.07C29.02 56.17 29.09 56.28 29.15 56.39H30.34C30.34 56.39 30.42 56.41 30.45 56.44C30.48 56.47 30.49 56.51 30.49 56.55L30.46 58C30.46 58.08 30.39 58.15 30.31 58.15H29.11C29.05 58.25 28.97 58.35 28.89 58.46L29.6 58.87C29.6 58.87 29.67 58.95 29.67 59C29.67 59.05 29.64 59.1 29.6 59.13L27.82 60.16C27.82 60.16 27.72 60.19 27.67 60.16L26.85 59.69C26.6 59.77 26.34 59.83 26.07 59.88V60.44C26.07 60.52 26 60.59 25.92 60.59H23.41H23.42ZM22.47 59.36C22.47 59.36 22.5 59.36 22.52 59.36C22.81 59.46 23.12 59.53 23.45 59.59C23.52 59.6 23.57 59.66 23.57 59.74V60.29H25.78V59.75C25.78 59.68 25.84 59.62 25.91 59.6C26.24 59.55 26.55 59.47 26.83 59.38C26.87 59.37 26.91 59.38 26.95 59.39L27.75 59.85L29.23 58.99L28.58 58.62C28.58 58.62 28.51 58.56 28.51 58.51C28.51 58.46 28.51 58.42 28.55 58.39C28.69 58.24 28.81 58.09 28.89 57.93C28.92 57.88 28.97 57.85 29.02 57.85H30.16L30.18 56.7H29.05C28.99 56.7 28.94 56.66 28.92 56.61C28.85 56.45 28.74 56.29 28.6 56.14C28.57 56.11 28.56 56.06 28.56 56.02C28.56 55.98 28.59 55.94 28.63 55.91L29.35 55.5L27.89 54.64L27.04 55.13C27.04 55.13 26.96 55.16 26.92 55.14C26.65 55.05 26.37 54.98 26.08 54.93C26.01 54.92 25.96 54.85 25.96 54.78V54.16H23.75V54.75C23.74 54.82 23.69 54.88 23.61 54.89C23.31 54.94 23.01 55 22.73 55.08C22.69 55.09 22.65 55.08 22.61 55.07L21.77 54.58L20.28 55.43L20.92 55.8C20.92 55.8 20.99 55.86 20.99 55.91C20.99 55.96 20.98 56 20.95 56.03C20.79 56.18 20.66 56.35 20.56 56.52C20.53 56.57 20.48 56.6 20.43 56.6H19.33V57.75H20.35C20.41 57.75 20.46 57.79 20.49 57.84C20.57 58.02 20.69 58.19 20.83 58.36C20.86 58.39 20.87 58.44 20.87 58.48C20.87 58.52 20.84 58.56 20.8 58.59L20.17 58.95L21.64 59.8L22.39 59.37C22.39 59.37 22.44 59.35 22.46 59.35L22.47 59.36ZM24.71 58.68C24.12 58.68 23.53 58.55 23.08 58.29C22.62 58.02 22.36 57.66 22.36 57.26C22.36 56.86 22.62 56.49 23.09 56.22C24 55.7 25.47 55.7 26.37 56.22C26.83 56.49 27.09 56.85 27.09 57.25C27.09 57.65 26.83 58.02 26.36 58.29C25.91 58.55 25.31 58.68 24.71 58.68ZM24.73 56.13C24.19 56.13 23.65 56.25 23.23 56.49C22.86 56.71 22.65 56.98 22.65 57.27C22.65 57.55 22.85 57.83 23.22 58.04C24.04 58.51 25.38 58.51 26.2 58.04C26.57 57.83 26.78 57.55 26.78 57.26C26.78 56.98 26.58 56.7 26.21 56.49C25.8 56.25 25.26 56.14 24.73 56.14V56.13Z" fill="#262028"/>
<path d="M25.93 60.44V61.6H23.41L23.42 60.45L25.93 60.44Z" fill="#262028"/>
<path d="M23.41 61.75C23.41 61.75 23.33 61.73 23.3 61.71C23.27 61.68 23.26 61.64 23.26 61.6V60.45C23.26 60.37 23.33 60.3 23.41 60.3H25.92C25.92 60.3 26 60.31 26.03 60.34C26.06 60.37 26.07 60.41 26.07 60.45V61.6C26.07 61.68 26 61.75 25.92 61.75H23.41ZM23.56 60.6V61.46H25.77V60.6H23.56Z" fill="#262028"/>
<path d="M36.69 59.96C35.03 60.92 35.04 62.47 36.7 63.43C38.36 64.39 41.06 64.39 42.71 63.43C44.37 62.47 44.36 60.92 42.7 59.96C41.04 59 38.34 59 36.69 59.96ZM40.37 61.4V59.83C40.98 59.9 41.56 60.08 42.04 60.35C42.56 60.65 42.87 61.02 42.97 61.4H40.37ZM39.24 59.8V61.39H36.43C36.53 61 36.84 60.63 37.35 60.33C37.88 60.02 38.54 59.85 39.23 59.79L39.24 59.8ZM37.37 63.05C36.88 62.77 36.57 62.41 36.45 62.05H39.25V63.6C38.57 63.54 37.9 63.36 37.37 63.06V63.05ZM40.38 63.57V62.05H42.96C42.84 62.42 42.54 62.77 42.05 63.05C41.57 63.32 40.99 63.5 40.38 63.57Z" fill="#FE443E"/>
<path d="M39.73 64.3C38.61 64.3 37.49 64.05 36.64 63.56C35.78 63.07 35.31 62.4 35.31 61.69C35.31 60.98 35.78 60.32 36.62 59.83C38.32 58.85 41.08 58.85 42.78 59.83C43.64 60.32 44.11 60.99 44.11 61.7C44.11 62.41 43.64 63.07 42.8 63.56C41.96 64.05 40.84 64.29 39.73 64.29V64.3ZM39.69 59.39C38.63 59.39 37.57 59.62 36.77 60.09C36.02 60.52 35.61 61.09 35.61 61.69C35.61 62.29 36.03 62.87 36.79 63.3C38.41 64.24 41.04 64.24 42.66 63.3C43.41 62.87 43.82 62.3 43.82 61.7C43.82 61.1 43.4 60.52 42.64 60.09C41.83 59.62 40.76 59.39 39.69 59.39ZM39.26 63.74H39.25C38.51 63.68 37.84 63.48 37.3 63.18C36.79 62.89 36.45 62.51 36.31 62.09C36.3 62.04 36.31 61.99 36.33 61.96C36.36 61.92 36.4 61.9 36.45 61.9H39.25C39.33 61.9 39.4 61.97 39.4 62.05V63.59C39.4 63.59 39.39 63.67 39.36 63.7C39.33 63.73 39.3 63.74 39.26 63.74ZM37.45 62.92C37.91 63.18 38.48 63.36 39.11 63.43V62.2H36.68C36.83 62.47 37.09 62.71 37.45 62.92ZM40.39 63.72C40.39 63.72 40.32 63.71 40.29 63.68C40.26 63.65 40.24 63.61 40.24 63.57V62.05C40.24 62.05 40.24 61.97 40.28 61.94C40.31 61.91 40.35 61.9 40.39 61.9H42.98C42.98 61.9 43.07 61.93 43.1 61.96C43.13 62 43.14 62.05 43.12 62.09C42.99 62.51 42.65 62.88 42.14 63.17C41.66 63.44 41.07 63.63 40.41 63.71H40.39V63.72ZM40.53 62.2V63.4C41.08 63.32 41.58 63.15 41.99 62.92C42.35 62.71 42.61 62.47 42.75 62.2H40.53ZM42.98 61.55H40.38C40.3 61.55 40.23 61.48 40.23 61.4V59.83C40.23 59.83 40.24 59.75 40.27 59.72C40.3 59.69 40.34 59.68 40.39 59.68C41.05 59.76 41.65 59.95 42.12 60.22C42.65 60.53 43 60.92 43.12 61.36C43.13 61.4 43.12 61.45 43.09 61.49C43.06 61.53 43.02 61.55 42.97 61.55H42.98ZM40.52 61.25H42.76C42.62 60.96 42.35 60.7 41.97 60.48C41.57 60.25 41.07 60.08 40.52 60V61.25ZM39.25 61.55H36.44C36.44 61.55 36.35 61.52 36.32 61.49C36.29 61.45 36.28 61.41 36.29 61.36C36.41 60.92 36.75 60.53 37.28 60.22C37.81 59.91 38.48 59.72 39.22 59.66C39.26 59.66 39.3 59.67 39.33 59.7C39.36 59.73 39.38 59.77 39.38 59.81V61.4C39.38 61.4 39.38 61.48 39.34 61.51C39.31 61.54 39.27 61.55 39.23 61.55H39.25ZM36.65 61.25H39.1V59.97C38.46 60.04 37.89 60.21 37.44 60.47C37.06 60.69 36.79 60.95 36.65 61.24V61.25Z" fill="#262028"/>
</svg>
